<svg width="401" height="259" viewBox="0 0 401 259" fill="none" xmlns="http://www.w3.org/2000/svg">
<g clip-path="url(#clip0_315_3)">
<path d="M59.1478 259.001C57.9093 258.998 56.7082 258.577 55.7398 257.806C54.7714 257.035 54.0926 255.96 53.8138 254.756C45.5647 218.723 27.4784 185.675 1.56026 159.274C1.03941 158.766 0.625508 158.159 0.342825 157.489C0.0601413 156.819 -0.085629 156.099 -0.085937 155.372C-0.086245 154.645 0.0589157 153.925 0.341031 153.255C0.623147 152.584 1.03654 151.977 1.55696 151.468C2.07738 150.959 2.69435 150.559 3.37169 150.292C4.04903 150.024 4.7731 149.894 5.50143 149.909C6.22976 149.925 6.94769 150.085 7.61311 150.381C8.27853 150.677 8.87805 151.103 9.3765 151.633C34.7092 177.438 52.9805 209.302 62.4409 244.174C75.6794 234.815 91.2401 227.823 108.776 223.331C126.868 218.695 146.726 216.768 167.841 217.611C197.132 218.778 226.157 224.768 254.223 230.537C263.413 232.431 272.911 234.391 282.25 236.136C316.322 242.528 356.264 247.759 394.176 238.146C394.872 237.969 395.597 237.931 396.308 238.034C397.019 238.137 397.703 238.378 398.321 238.745C398.939 239.111 399.478 239.596 399.908 240.17C400.339 240.745 400.651 241.398 400.828 242.093C401.005 242.789 401.044 243.512 400.941 244.222C400.838 244.932 400.596 245.614 400.228 246.231C399.861 246.847 399.376 247.386 398.8 247.815C398.225 248.244 397.57 248.556 396.873 248.733C356.887 258.874 315.473 253.484 280.214 246.878C270.782 245.105 261.234 243.139 252 241.235C224.364 235.542 195.786 229.673 167.395 228.528C113.001 226.359 80.3846 243.228 62.5898 257.762C61.6193 258.558 60.4037 258.995 59.1478 259.001V259.001Z" fill="#F6F6F6"/>
<path d="M344.509 165.429C344.509 155.921 331.966 148.104 315.859 147.096C329.241 139.62 335.358 127.678 329.561 119.431C323.764 111.184 308.137 109.571 293.574 115.307C300.607 103.344 298.632 90.4887 288.582 85.7264C278.532 80.9642 264.025 85.9797 254.934 96.9246C253.737 83.6839 244.161 73.3556 232.561 73.3556C229.7 73.3572 226.875 73.9888 224.287 75.2054C225.197 70.8011 224.706 66.5123 222.583 62.8401C216.918 53.0514 201.622 51.1134 187.407 57.9402C194.28 43.7141 192.371 28.4308 182.531 22.7712C172.69 17.1116 158.525 23.0685 149.611 36.0835C148.441 20.3323 139.13 8.06055 127.767 8.06055C116.404 8.06055 107.126 20.2937 105.907 36.0119C97.0264 22.9584 82.795 16.9849 72.9765 22.6446C63.1579 28.3042 61.2273 43.5654 68.0672 57.753C53.8137 50.8932 38.5012 52.7981 32.8307 62.6254C27.1602 72.4527 33.1285 86.5853 46.1685 95.4766C30.3871 96.6493 18.0918 105.937 18.0918 117.278C18.0918 128.62 30.3374 137.88 46.0968 139.075C33.0182 147.966 27.0278 162.165 32.7038 171.964C38.3798 181.764 53.6648 183.691 67.8796 176.864C61.0066 191.09 62.9152 206.374 72.7613 212.033C82.6075 217.693 96.7616 211.736 105.676 198.726C106.85 214.472 116.156 226.744 127.519 226.744C133.774 226.744 139.412 223.011 143.411 217.021C150.88 219.741 161.332 219.267 171.289 215.342C164.262 227.305 166.236 240.161 176.286 244.923C186.337 249.685 200.844 244.67 209.934 233.725C211.137 246.971 220.68 257.294 232.285 257.294C243.891 257.294 253.401 247.004 254.625 233.785C263.738 244.763 278.289 249.784 288.339 245.028C298.39 240.271 300.353 227.449 293.359 215.496C307.943 221.266 323.609 219.647 329.406 211.4C335.204 203.153 329.103 191.25 315.765 183.768C331.933 182.783 344.509 174.948 344.509 165.429Z" fill="#FDB1E9"/>
<path d="M40.9938 107.191C43.2002 105.38 45.9086 104.593 48.5729 103.805C56.8911 101.333 65.2313 98.9385 73.5605 96.5106C77.9734 96.0592 82.0332 94.1873 86.2861 93.0862C106.839 88.3405 127.072 82.4001 147.514 77.1643C155.75 75.0557 163.952 72.5012 172.232 70.5908C174.62 69.8696 177.146 69.5888 179.54 68.8345C181.587 68.1904 182.447 68.8345 182.922 70.8165C184.19 76.1789 184.913 81.5742 184.361 87.0907C183.92 91.4951 182.342 95.2058 178.045 97.2263C173.368 99.4285 168.31 97.397 165.182 93.7854C162.854 91.0987 160.769 87.9771 158.282 85.4776C157.471 84.6738 153.654 82.1743 153.951 80.82C153.141 84.4096 152.528 87.5422 151.745 90.6197C149.219 100.249 144.023 107.406 133.95 110.439C124.071 113.396 116.85 110.632 112.294 101.46C111.456 99.7754 110.689 99.3459 108.874 99.7809C95.702 102.936 82.5076 105.986 69.3242 109.069C64.2936 110.17 59.274 111.271 54.2323 112.311C50.669 113.033 47.0615 113.721 43.476 114.172C41.6557 114.398 39.6148 114.068 38.815 112.091C37.9379 109.927 39.4714 108.458 40.9938 107.191Z" fill="#070707"/>
<path d="M130.905 242.016C124.549 241.969 118.286 240.492 112.581 237.694C104.201 233.651 97.2038 227.227 92.4695 219.229C83.7928 204.331 82.8992 184.544 90.0866 166.293C90.2007 166.001 90.4264 165.767 90.714 165.641C91.0016 165.515 91.3275 165.508 91.6201 165.622C91.9127 165.736 92.1479 165.961 92.2741 166.248C92.4003 166.535 92.4071 166.86 92.293 167.152C85.3649 184.742 86.1978 203.769 94.4995 218.056C99.0047 225.655 105.66 231.756 113.629 235.591C121.826 239.544 130.762 240.678 138.788 238.773C149.974 236.12 158.96 228.313 165.541 221.844C167.813 219.609 170.058 217.252 172.237 214.978C177.51 209.473 182.96 203.758 189.226 199.123C189.349 199.019 189.491 198.942 189.645 198.896C189.798 198.85 189.96 198.835 190.119 198.854C190.278 198.872 190.432 198.922 190.571 199.002C190.71 199.082 190.831 199.19 190.927 199.318C191.023 199.446 191.091 199.593 191.128 199.749C191.165 199.904 191.17 200.066 191.141 200.224C191.113 200.381 191.053 200.531 190.965 200.665C190.877 200.798 190.762 200.912 190.628 201C184.516 205.52 179.138 211.147 173.931 216.592C171.724 218.882 169.485 221.249 167.19 223.512C160.394 230.212 151.083 238.267 139.328 241.052C136.568 241.7 133.741 242.024 130.905 242.016V242.016Z" fill="black"/>
<path d="M198.059 208.526C197.767 208.524 197.487 208.416 197.27 208.223L191.257 202.789C190.787 202.418 190.453 201.901 190.308 201.319C190.067 201.441 189.791 201.475 189.527 201.416C189.264 201.357 189.029 201.208 188.863 200.994C187.519 199.307 185.723 198.036 183.684 197.328C183.39 197.225 183.148 197.011 183.012 196.731C182.875 196.452 182.855 196.13 182.956 195.836C183.006 195.691 183.084 195.557 183.186 195.442C183.288 195.327 183.412 195.234 183.55 195.167C183.689 195.1 183.839 195.061 183.992 195.052C184.146 195.043 184.3 195.064 184.445 195.115C186.299 195.76 187.992 196.797 189.409 198.154C190.143 196.689 191.089 195.34 192.217 194.151C192.404 193.954 192.655 193.828 192.925 193.794C193.196 193.761 193.469 193.822 193.699 193.968C193.929 194.113 194.101 194.334 194.186 194.593C194.271 194.851 194.263 195.131 194.164 195.384L192.785 198.891C193.09 198.884 193.395 198.921 193.69 199.001L193.822 199.034C194.399 199 194.972 198.925 195.538 198.809C195.771 198.761 196.013 198.786 196.232 198.879C196.451 198.973 196.636 199.131 196.762 199.332C196.889 199.532 196.951 199.766 196.943 200.003C196.934 200.239 196.854 200.468 196.713 200.659C195.88 201.76 194.506 201.606 193.591 201.385H193.188L198.825 206.472C199.001 206.631 199.125 206.84 199.18 207.07C199.235 207.301 199.219 207.543 199.134 207.764C199.048 207.985 198.898 208.175 198.702 208.309C198.506 208.443 198.274 208.515 198.036 208.515L198.059 208.526Z" fill="black"/>
<path d="M212.207 112.604C212.089 112.604 211.972 112.587 211.859 112.555C211.563 112.462 211.315 112.256 211.17 111.982C211.026 111.707 210.996 111.387 211.087 111.09C215.257 97.7175 219.571 83.8877 226.979 71.5885C235.292 57.8248 246.71 48.014 259.143 44.0611C259.413 44.0288 259.685 44.0908 259.914 44.2366C260.143 44.3823 260.315 44.6028 260.399 44.8605C260.484 45.1181 260.476 45.3971 260.378 45.6498C260.28 45.9026 260.097 46.1135 259.86 46.2467C247.968 50.051 237.007 59.4599 228.97 72.7722C221.744 84.8512 217.458 98.5488 213.327 111.762C213.256 112.004 213.109 112.217 212.907 112.369C212.706 112.521 212.46 112.604 212.207 112.604V112.604Z" fill="black"/>
<path d="M213.602 227.129C213.317 227.128 213.042 227.023 212.829 226.834C212.616 226.646 212.479 226.386 212.443 226.104C212.407 225.822 212.475 225.536 212.635 225.3C212.794 225.065 213.034 224.895 213.31 224.823C235.109 219.224 257.653 213.426 280.523 211.29C305.659 208.945 328.016 211.472 347.013 218.805C348.658 208.099 353.24 198.057 360.252 189.791C360.458 189.569 360.742 189.436 361.044 189.418C361.347 189.4 361.644 189.5 361.875 189.696C362.106 189.892 362.252 190.17 362.282 190.47C362.313 190.771 362.226 191.072 362.039 191.311C354.999 199.619 350.527 209.788 349.165 220.583C349.141 220.761 349.077 220.931 348.978 221.08C348.879 221.23 348.747 221.355 348.592 221.445C348.437 221.536 348.264 221.59 348.085 221.604C347.906 221.618 347.726 221.591 347.559 221.525C328.59 213.911 306.139 211.252 280.766 213.613C258.078 215.733 235.628 221.497 213.917 227.08C213.814 227.108 213.709 227.125 213.602 227.129V227.129Z" fill="black"/>
<path d="M327.234 187.099C326.957 187.098 326.689 186.998 326.478 186.818L326.252 186.631C326.061 186.47 325.926 186.252 325.869 186.009C325.811 185.766 325.833 185.511 325.932 185.282C329.948 175.818 334.102 166.013 336.137 155.822C338.399 144.519 337.615 134.081 333.886 125.641C329.551 115.825 320.698 108.667 311.337 107.396C304.028 106.405 295.826 108.745 288.247 114.002C281.357 118.776 275.72 125.222 270.264 131.46C270.058 131.69 269.77 131.829 269.462 131.848C269.153 131.866 268.85 131.763 268.617 131.561C268.385 131.358 268.241 131.072 268.218 130.765C268.195 130.458 268.294 130.154 268.494 129.919C274.043 123.576 279.78 117.014 286.912 112.081C294.971 106.504 303.758 104.026 311.651 105.094C321.801 106.471 331.371 114.173 336.032 124.71C339.96 133.596 340.793 144.53 338.437 156.295C336.479 166.117 332.645 175.455 328.823 184.489C335.273 183.493 341.834 183.437 348.3 184.324C348.602 184.373 348.872 184.538 349.054 184.784C349.236 185.029 349.315 185.335 349.274 185.638C349.233 185.941 349.076 186.215 348.835 186.404C348.594 186.592 348.29 186.68 347.985 186.647C341.158 185.708 334.224 185.858 327.444 187.093C327.374 187.101 327.304 187.102 327.234 187.099V187.099Z" fill="black"/>
<path d="M127.493 149.6C127.162 149.6 126.842 149.6 126.522 149.561C123.757 149.397 121.057 148.659 118.593 147.395C116.13 146.132 113.957 144.37 112.213 142.222C109.143 138.411 107.608 133.593 107.911 128.712C107.951 128.417 108.103 128.148 108.335 127.96C108.567 127.773 108.862 127.681 109.16 127.702C109.458 127.724 109.736 127.858 109.939 128.077C110.141 128.297 110.252 128.585 110.249 128.883C109.632 137.245 115.616 146.396 126.698 147.227C130.797 147.541 136.075 145.344 140.108 141.644C143.864 138.209 146.043 133.964 146.093 130C146.116 129.704 146.252 129.427 146.472 129.227C146.692 129.027 146.98 128.917 147.278 128.92C147.576 128.924 147.861 129.04 148.076 129.246C148.291 129.451 148.42 129.731 148.437 130.028C148.382 134.707 145.982 139.442 141.691 143.368C137.399 147.293 132.076 149.6 127.493 149.6Z" fill="black"/>
<path d="M97.209 134.037C96.2113 134.047 95.2162 133.932 94.2469 133.696C93.9597 133.606 93.7181 133.41 93.5719 133.147C93.4256 132.884 93.3859 132.576 93.4609 132.285C93.5359 131.994 93.7199 131.743 93.9749 131.583C94.23 131.424 94.5366 131.368 94.8316 131.428C98.0089 132.243 102.946 131.18 107.116 128.785C109.912 127.178 112.13 125.113 113.183 123.125C113.341 122.874 113.589 122.691 113.877 122.614C114.164 122.537 114.47 122.572 114.733 122.712C114.995 122.852 115.195 123.086 115.292 123.367C115.388 123.648 115.374 123.955 115.252 124.227C113.956 126.627 111.474 128.961 108.263 130.806C104.672 132.887 100.612 134.037 97.209 134.037Z" fill="black"/>
<path d="M234.575 30.9189C234.289 30.9186 234.014 30.8127 233.803 30.6216C233.751 30.5794 233.705 30.5314 233.665 30.4784C233.484 30.3359 233.35 30.1432 233.28 29.9247C233.209 29.7062 233.205 29.4716 233.267 29.2507C233.888 26.7874 234.258 24.2678 234.371 21.7302C230.273 21.0283 226.135 20.5906 221.982 20.4199C221.739 20.4114 221.506 20.328 221.313 20.1812C221.121 20.0344 220.979 19.8316 220.906 19.6006C220.834 19.3697 220.836 19.1221 220.911 18.8922C220.986 18.6622 221.131 18.4611 221.325 18.3168C225.398 15.2439 229.817 12.6571 234.492 10.6092C234.426 7.89495 234.315 5.32389 234.222 3.18226L234.139 1.20579C234.134 0.955993 234.209 0.711074 234.353 0.507057C234.498 0.303039 234.704 0.150691 234.942 0.0724206C235.18 -0.00585019 235.436 -0.00591252 235.674 0.0722428C235.912 0.150398 236.118 0.302646 236.263 0.506593C237.509 2.3179 238.888 4.58065 240.345 6.97554L241.051 8.13719C245.793 6.61833 250.693 5.64489 255.657 5.2358C255.905 5.21766 256.153 5.27857 256.364 5.40976C256.575 5.54095 256.739 5.73566 256.832 5.96583C256.925 6.19601 256.943 6.44978 256.883 6.69059C256.822 6.93141 256.687 7.14684 256.496 7.30587C253.002 10.2627 249.765 13.5097 246.82 17.012C249.275 20.4144 251.873 23.3709 254.477 24.962C254.733 25.1109 254.923 25.3515 255.009 25.6352C255.094 25.9188 255.068 26.2242 254.936 26.4895C254.804 26.7548 254.576 26.9602 254.299 27.064C254.021 27.1678 253.714 27.1622 253.44 27.0485C249.579 25.5305 245.625 24.2616 241.602 23.2497L241.398 23.4975C239.357 25.9695 237.432 28.3038 235.474 30.5225C235.361 30.6489 235.222 30.7497 235.067 30.818C234.912 30.8864 234.744 30.9208 234.575 30.9189V30.9189ZM236.687 22.1542C236.599 23.47 236.478 24.7417 236.312 25.9309C237.211 24.8629 238.116 23.7728 239.043 22.6276C238.259 22.4735 237.476 22.3083 236.687 22.1542V22.1542ZM243.257 21.2568C245.007 21.7119 246.743 22.2184 248.464 22.7763C247.337 21.5186 246.275 20.2048 245.281 18.8399C244.575 19.6382 243.902 20.4475 243.257 21.2568ZM236.814 19.8198C238.116 20.0731 239.414 20.352 240.709 20.6567C241.746 19.4014 242.794 18.1407 243.853 16.8964C242.518 14.9585 241.238 12.938 240.03 10.978C238.966 11.3524 237.906 11.7543 236.864 12.1782C236.914 14.6942 236.908 17.2983 236.814 19.8198ZM225.402 18.3003C228.446 18.5315 231.471 18.8986 234.475 19.4014C234.547 17.3644 234.553 15.2613 234.531 13.1912C231.353 14.6327 228.3 16.3323 225.402 18.2728V18.3003ZM242.319 10.1962C243.318 11.8038 244.36 13.4445 245.436 15.0356C247.559 12.5686 249.809 10.2128 252.176 7.97754C248.837 8.45323 245.54 9.19517 242.319 10.1962V10.1962ZM236.638 5.434C236.693 6.77734 236.748 8.18674 236.787 9.6512C237.443 9.39244 238.1 9.1502 238.761 8.90796L238.32 8.18674C237.741 7.2398 237.189 6.31488 236.638 5.434Z" fill="black"/>
<path d="M272.068 32.9124C271.991 32.9205 271.913 32.9205 271.836 32.9124C271.531 32.8513 271.263 32.6721 271.091 32.4141C270.918 32.1562 270.855 31.8404 270.915 31.5361C271.713 27.5356 272.781 23.5938 274.114 19.7378C274.218 19.4454 274.433 19.2056 274.713 19.0706C274.993 18.9355 275.315 18.9161 275.609 19.0166C275.902 19.1123 276.145 19.3204 276.285 19.595C276.425 19.8696 276.449 20.1883 276.354 20.481C275.054 24.2359 274.013 28.0748 273.237 31.971C273.183 32.2395 273.036 32.4807 272.823 32.6526C272.609 32.8246 272.342 32.9165 272.068 32.9124V32.9124Z" fill="black"/>
<path d="M266.623 27.4669C266.342 27.4652 266.07 27.3628 265.858 27.1782C265.646 26.9937 265.507 26.7393 265.467 26.4612C265.427 26.1832 265.488 25.9 265.64 25.6633C265.791 25.4265 266.023 25.2519 266.292 25.1711C271.17 23.7285 276.192 22.8257 281.268 22.4789C281.556 22.4542 281.843 22.5367 282.073 22.7106C282.304 22.8844 282.462 23.1372 282.517 23.4203C282.571 23.7034 282.519 23.9968 282.37 24.2438C282.221 24.4908 281.986 24.6741 281.709 24.7582L281.003 24.9839C280.708 25.0794 280.388 25.0556 280.11 24.9178C275.659 25.3093 271.259 26.1467 266.976 27.4173C266.862 27.4511 266.743 27.4678 266.623 27.4669V27.4669Z" fill="black"/>
<path d="M278.223 28.9692C278.03 28.9674 277.841 28.9183 277.671 28.8261C274.598 27.1919 271.847 25.0151 269.552 22.4012C269.369 22.1654 269.284 21.8691 269.312 21.5726C269.34 21.276 269.481 21.0014 269.705 20.8044C269.929 20.6075 270.22 20.503 270.518 20.5123C270.816 20.5215 271.1 20.6437 271.311 20.8541C273.423 23.256 275.952 25.2589 278.775 26.767C279.003 26.8913 279.184 27.0878 279.288 27.3256C279.393 27.5634 279.415 27.8291 279.352 28.081C279.289 28.3329 279.144 28.5568 278.939 28.7176C278.735 28.8783 278.483 28.9668 278.223 28.9692V28.9692Z" fill="black"/>
</g>
<defs>
<clipPath id="clip0_315_3">
<rect width="401" height="259" fill="white"/>
</clipPath>
</defs>
</svg>
