<svg width="190" height="224" viewBox="0 0 190 224" fill="none" xmlns="http://www.w3.org/2000/svg">
<g clip-path="url(#clip0_239_482)">
<path d="M21.6488 102.05C25.7437 100.706 30.0357 100.059 34.3454 100.136C34.3454 99.8107 34.3213 99.4896 34.3213 99.1645C34.3213 98.8394 34.3414 98.454 34.3494 98.0968C30.017 98.18 25.7015 97.5327 21.5845 96.1823C6.64581 91.3339 -2.71597 78.9479 0.691223 68.5165C4.09843 58.0851 18.9447 53.5617 33.8834 58.4102C38.0739 59.7555 42.0027 61.808 45.4992 64.4788C45.8983 63.9249 46.3001 63.3777 46.7046 62.8372C43.0515 60.3334 39.8597 57.217 37.2705 53.6259C28.0293 40.9349 27.752 25.4182 36.6357 18.9684C45.5193 12.5185 60.2209 17.5877 69.4622 30.2827C72.1757 33.9795 74.2034 38.1324 75.4489 42.5443C76.0998 42.3303 76.7547 42.1296 77.4137 41.9423C75.8003 37.6157 74.9836 33.0334 75.0029 28.4164C75.019 12.7192 83.9267 0 94.8997 0C105.873 0 114.776 12.7192 114.776 28.4124C114.801 33.2061 113.919 37.9614 112.177 42.428C112.864 42.6487 113.543 42.8775 114.218 43.1223C115.43 38.452 117.522 34.055 120.381 30.1664C129.623 17.4713 144.3 12.4061 153.184 18.852C162.067 25.2978 161.782 40.8145 152.549 53.5096C149.653 57.5314 145.996 60.9472 141.785 63.5637C142.231 64.1617 142.657 64.7678 143.083 65.3858C146.889 62.1685 151.294 59.7338 156.045 58.2215C170.987 53.3811 185.85 57.8964 189.245 68.3238C192.64 78.7512 183.274 91.1412 168.352 95.9897C163.599 97.5613 158.581 98.1752 153.59 97.7958C153.59 98.2534 153.626 98.7069 153.626 99.1645C153.626 99.4655 153.626 99.7585 153.606 100.055C158.613 99.6689 163.648 100.281 168.416 101.858C183.354 106.706 192.712 119.092 189.309 129.523C185.906 139.955 171.052 144.49 156.113 139.63C151.436 138.138 147.093 135.756 143.324 132.614C142.922 133.22 142.48 133.818 142.046 134.412C146.216 137.024 149.838 140.421 152.71 144.414C161.951 157.105 162.228 172.622 153.345 179.068C144.461 185.513 129.779 180.448 120.546 167.757C117.757 163.959 115.695 159.678 114.463 155.13C113.804 155.371 113.133 155.588 112.454 155.805C114.145 160.216 114.999 164.904 114.973 169.628C114.973 185.321 106.074 198.04 95.0966 198.04C84.1196 198.04 75.2159 185.321 75.2159 169.628C75.1973 165.124 75.9725 160.653 77.5061 156.419C76.8471 156.229 76.1922 156.031 75.5413 155.825C74.2885 160.155 72.2809 164.231 69.6108 167.866C60.3696 180.561 45.6961 185.626 36.8124 179.18C27.9288 172.734 28.2141 157.217 37.4473 144.522C39.9918 140.997 43.1165 137.929 46.6885 135.448C46.2867 134.91 45.8849 134.36 45.4832 133.81C42.0083 136.45 38.1087 138.479 33.9517 139.81C19.013 144.659 4.15469 140.135 0.759537 129.704C-2.63562 119.273 6.72215 106.899 21.6488 102.05Z" fill="#FFDD59"/>
<path d="M102.341 224C102.446 224.002 102.55 223.983 102.647 223.944C107.85 221.981 113.517 221.593 118.94 222.828C119.049 222.855 119.162 222.859 119.273 222.842C119.384 222.825 119.491 222.786 119.587 222.727C119.682 222.668 119.766 222.592 119.832 222.501C119.898 222.41 119.946 222.307 119.972 222.198C119.999 222.089 120.003 221.976 119.986 221.865C119.968 221.754 119.929 221.648 119.871 221.552C119.812 221.456 119.735 221.373 119.644 221.307C119.554 221.241 119.451 221.193 119.341 221.167C113.988 219.95 108.403 220.222 103.193 221.953C103.216 209.709 104.001 197.477 105.544 185.329C105.559 185.111 105.49 184.896 105.351 184.728C105.212 184.559 105.013 184.45 104.797 184.423C104.58 184.395 104.361 184.452 104.184 184.581C104.008 184.71 103.888 184.902 103.848 185.116C102.246 197.733 101.457 210.44 101.486 223.158C101.486 223.296 101.52 223.432 101.584 223.554C101.649 223.676 101.742 223.781 101.855 223.86C102 223.954 102.169 224.002 102.341 224Z" fill="black"/>
<path d="M78.6071 221.368C78.7114 221.367 78.8148 221.348 78.9125 221.311C84.1152 219.346 89.7827 218.958 95.2052 220.196C95.3144 220.222 95.4278 220.227 95.5388 220.209C95.6498 220.192 95.7563 220.153 95.8521 220.094C95.948 220.036 96.0314 219.959 96.0976 219.868C96.1638 219.777 96.2114 219.675 96.2378 219.565C96.2642 219.456 96.2688 219.343 96.2514 219.232C96.2339 219.121 96.1948 219.015 96.1363 218.919C96.0777 218.823 96.0008 218.74 95.91 218.674C95.8192 218.608 95.7162 218.56 95.607 218.534C90.2614 217.315 84.6838 217.582 79.479 219.305C79.5007 207.06 80.2843 194.828 81.8255 182.68C81.8401 182.569 81.8326 182.456 81.8033 182.348C81.774 182.239 81.7236 182.138 81.6548 182.049C81.5861 181.96 81.5005 181.886 81.4029 181.83C81.3053 181.775 81.1977 181.739 81.0862 181.725C80.8616 181.698 80.6352 181.76 80.4562 181.898C80.2772 182.036 80.16 182.24 80.1299 182.464C78.5289 195.084 77.7411 207.795 77.7714 220.517C77.7735 220.742 77.8639 220.957 78.0232 221.116C78.1825 221.275 78.3979 221.365 78.6232 221.368H78.6071Z" fill="black"/>
<path d="M81.0429 132.268C83.4215 129.86 85.4184 124.096 80.6733 122.965C77.7763 122.274 74.4455 124.642 72.8785 127.468C71.0584 130.751 74.341 133.962 76.141 134.291C78.0094 134.604 79.7692 133.553 81.0429 132.268Z" fill="black"/>
<path d="M111.325 78.7383C120.743 78.7383 127.867 86.0431 127.867 95.6958C127.867 105.349 120.743 112.653 111.325 112.653C101.907 112.653 94.7755 105.353 94.7755 95.6958C94.7755 86.0391 101.911 78.7383 111.325 78.7383Z" fill="white"/>
<path d="M104.743 95.697C104.743 90.5034 107.693 86.2891 111.325 86.2891C114.957 86.2891 117.91 90.5034 117.91 95.697C117.91 100.891 114.961 105.105 111.325 105.105C107.689 105.105 104.743 100.895 104.743 95.697Z" fill="black"/>
<path d="M113.134 127.392C120.664 127.392 128.193 124.394 134.2 118.393C140.749 111.851 143.964 103.081 143.039 94.3117C143.015 94.0871 142.903 93.8812 142.727 93.7393C142.64 93.669 142.54 93.6166 142.433 93.585C142.325 93.5534 142.213 93.5432 142.101 93.5551C141.99 93.567 141.882 93.6006 141.784 93.6541C141.685 93.7076 141.599 93.78 141.528 93.867C141.458 93.954 141.405 94.054 141.374 94.1613C141.342 94.2686 141.332 94.3811 141.344 94.4923C142.212 102.748 139.174 111.012 132.995 117.197C121.672 128.508 104.596 128.508 93.2733 117.197C87.7968 111.731 84.7834 104.683 84.7834 97.358C84.7834 90.0332 87.7968 82.9852 93.2733 77.5187C98.7497 72.0522 105.801 69.0339 113.134 69.0339C120.467 69.0339 127.518 72.0481 132.995 77.5147C134.872 79.3886 136.493 81.502 137.816 83.8C137.869 83.9027 137.942 83.9935 138.032 84.0671C138.121 84.1407 138.224 84.1955 138.335 84.2281C138.446 84.2608 138.562 84.2706 138.677 84.2571C138.792 84.2436 138.903 84.2069 139.003 84.1494C139.103 84.0918 139.191 84.0146 139.26 83.9223C139.33 83.83 139.38 83.7246 139.408 83.6124C139.435 83.5002 139.44 83.3836 139.421 83.2696C139.402 83.1556 139.361 83.0466 139.299 82.9491C137.896 80.5192 136.178 78.2856 134.188 76.3066C128.394 70.5189 120.929 67.3281 113.122 67.3281C105.315 67.3281 97.8537 70.539 92.0518 76.3066C86.2499 82.0742 83.0637 89.5716 83.0637 97.354C83.0637 105.136 86.258 112.606 92.0518 118.401C98.0707 124.39 105.6 127.388 113.134 127.392Z" fill="black"/>
<path d="M70.7043 99.7779C74.666 99.7779 78.2179 98.5296 80.038 96.4345C80.1716 96.2619 80.2341 96.0447 80.2126 95.8275C80.1912 95.6103 80.0873 95.4095 79.9224 95.2663C79.7575 95.1231 79.544 95.0484 79.3257 95.0574C79.1074 95.0664 78.9008 95.1584 78.7482 95.3147C77.0446 97.2774 73.1954 98.357 69.1655 97.9998C66.385 97.755 63.8497 96.8961 62.0296 95.5917C61.8463 95.4591 61.6178 95.4048 61.3944 95.4405C61.171 95.4763 60.971 95.5992 60.8383 95.7823C60.7056 95.9654 60.6512 96.1936 60.687 96.4168C60.7228 96.64 60.8459 96.8398 61.0291 96.9723C63.0944 98.4654 65.931 99.4367 69.0168 99.7096C69.5833 99.7498 70.1498 99.7779 70.7043 99.7779Z" fill="black"/>
<path d="M113.133 122.612C119.465 122.612 125.797 120.091 130.848 115.042C140.949 104.956 140.949 89.7562 130.848 79.6499C120.747 69.5436 105.515 69.5596 95.4139 79.6499C85.3128 89.7401 85.3128 104.96 95.4139 115.05C100.464 120.087 106.801 122.612 113.133 122.612ZM113.133 73.802C119.035 73.802 124.934 76.154 129.643 80.854C139.053 90.2579 139.053 104.434 129.643 113.838C120.233 123.242 106.037 123.238 96.6273 113.838C87.2173 104.438 87.2133 90.2579 96.6273 80.854C101.328 76.154 107.231 73.802 113.133 73.802Z" fill="black"/>
<path d="M143.134 151.716C143.33 151.717 143.52 151.65 143.673 151.527C143.849 151.384 143.961 151.177 143.985 150.951C144.009 150.726 143.943 150.5 143.801 150.323C137.223 142.185 131.217 133.602 125.825 124.636C125.708 124.442 125.519 124.302 125.3 124.248C125.08 124.193 124.848 124.228 124.654 124.345C124.46 124.461 124.32 124.65 124.265 124.869C124.211 125.089 124.246 125.321 124.362 125.515C129.793 134.545 135.844 143.188 142.471 151.382C142.549 151.485 142.649 151.568 142.764 151.625C142.879 151.683 143.006 151.714 143.134 151.716Z" fill="black"/>
<path d="M143.661 151.9H143.742C144.897 151.772 145.973 151.249 146.788 150.421C147.602 149.593 148.106 148.509 148.213 147.352C148.358 145.454 147.438 143.8 146.405 142.135C142.082 135.167 136.867 127.248 129.687 121.412C129.51 121.278 129.288 121.218 129.068 121.244C128.848 121.271 128.646 121.381 128.506 121.553C128.366 121.725 128.298 121.944 128.316 122.165C128.335 122.386 128.439 122.591 128.606 122.737C135.585 128.404 140.704 136.186 144.951 143.034C145.835 144.455 146.614 145.843 146.51 147.228C146.431 147.983 146.098 148.688 145.565 149.229C145.032 149.769 144.331 150.112 143.577 150.202C143.351 150.212 143.138 150.311 142.986 150.478C142.833 150.645 142.753 150.865 142.763 151.091C142.773 151.317 142.873 151.529 143.04 151.682C143.207 151.834 143.427 151.914 143.653 151.904L143.661 151.9Z" fill="black"/>
</g>
<defs>
<clipPath id="clip0_239_482">
<rect width="190" height="224" fill="white" transform="matrix(-1 0 0 1 190 0)"/>
</clipPath>
</defs>
</svg>
