<svg width="138" height="247" viewBox="0 0 138 247" fill="none" xmlns="http://www.w3.org/2000/svg">
<path d="M165.296 -4.57764e-05L34.7969 204.483C34.7969 204.483 136.524 197.29 147.314 214.245C155.313 226.815 165.296 -4.57764e-05 165.296 -4.57764e-05Z" fill="white"/>
<path d="M165.296 -4.57764e-05L34.7969 204.483C34.7969 204.483 136.524 197.29 147.314 214.245C155.313 226.815 165.296 -4.57764e-05 165.296 -4.57764e-05Z" fill="#F6F6F6"/>
<path d="M145.282 228.886C145.282 238.89 117.948 247 84.2298 247C50.5116 247 23.1777 238.89 23.1777 228.886C23.1777 218.881 50.5116 210.771 84.2298 210.771C117.948 210.771 145.282 218.881 145.282 228.886Z" fill="#F6F6F6"/>
<path d="M153.521 121.845C153.521 118.733 145.288 116.196 134.917 116.021C144.999 113.543 152.473 109.233 151.779 106.197C151.087 103.163 142.495 102.523 132.346 104.659C141.624 99.9995 147.952 94.1358 146.6 91.33C145.25 88.5258 136.731 89.8137 127.311 94.1551C135.319 87.5479 140.184 80.4229 138.242 77.9878C136.302 75.5548 128.282 78.7054 120.064 85.0346C126.402 76.8108 129.56 68.7817 127.124 66.8399C124.691 64.8996 117.574 69.756 110.97 77.7551C115.32 68.3271 116.611 59.7971 113.805 58.446C111.002 57.0956 105.144 63.4137 100.485 72.6819C102.627 62.5225 101.988 53.9192 98.9515 53.226C95.917 52.5335 91.6125 59.9967 89.1332 70.0684C88.9606 59.6873 86.4235 51.4421 83.3087 51.4421C80.197 51.4421 77.6611 59.6763 77.4854 70.0473C75.0071 59.9645 70.6982 52.4906 67.6616 53.1837C64.6272 53.8763 63.9871 62.4682 66.1233 72.6185C61.464 63.3401 55.5996 57.0122 52.7948 58.3636C49.9906 59.7137 51.2779 68.233 55.6189 77.6533C49.012 69.6444 41.8873 64.7801 39.4519 66.7216C37.019 68.6622 40.1702 76.6812 46.4984 84.8991C38.2753 78.5614 30.2468 75.4046 28.3047 77.8394C26.3647 80.2726 31.2202 87.3894 39.2195 93.9929C29.7913 89.6439 21.2615 88.3529 19.9108 91.159C18.5603 93.9629 24.8778 99.8205 34.1464 104.479C23.9872 102.337 15.3833 102.976 14.6908 106.012C13.9986 109.046 21.4608 113.351 31.5332 115.831C21.1521 116.003 12.9062 118.54 12.9062 121.655C12.9062 124.767 21.1404 127.303 31.5117 127.479C21.4286 129.957 13.9553 134.266 14.6479 137.302C15.3404 140.336 23.9324 140.977 34.0829 138.84C24.8049 143.5 18.4766 149.364 19.8283 152.169C21.1778 154.974 29.6971 153.686 39.1177 149.344C31.1086 155.952 26.2445 163.076 28.1867 165.512C30.1266 167.945 38.1456 164.794 46.3636 158.465C40.0255 166.689 36.8687 174.718 39.3041 176.659C41.7374 178.6 48.8535 173.743 55.4571 165.744C51.1087 175.172 49.8171 183.702 52.6231 185.054C55.4273 186.404 61.285 180.086 65.9433 170.817C63.8016 180.977 64.4405 189.58 67.4771 190.273C70.5106 190.966 74.8161 183.502 77.2944 173.431C77.467 183.812 80.0051 192.057 83.1189 192.057C86.2316 192.057 88.7678 183.823 88.9435 173.452C91.4218 183.535 95.7307 191.008 98.766 190.316C101.8 189.623 102.441 181.031 100.304 170.881C104.964 180.159 110.828 186.487 113.634 185.136C116.438 183.786 115.151 175.266 110.808 165.846C117.417 173.855 124.541 178.72 126.975 176.778C129.409 174.837 126.258 166.818 119.929 158.601C128.154 164.938 136.182 168.095 138.124 165.66C140.064 163.227 135.207 156.11 127.209 149.506C136.636 153.855 145.166 155.146 146.518 152.341C147.869 149.536 141.55 143.679 132.282 139.02C142.442 141.163 151.046 140.524 151.738 137.487C152.43 134.453 144.967 130.148 134.896 127.669C145.276 127.497 153.521 124.959 153.521 121.845Z" fill="#FF5A3D"/>
<path d="M147.088 141.01C146.074 138.56 143.62 136.602 141.241 134.735C138.697 132.74 136.078 130.703 132.752 129.483C127.483 127.55 121.203 127.941 115.465 128.908C100.233 131.474 86.2398 137.875 76.3584 146.795C77.5016 145.872 78.6448 144.949 79.7877 144.026" stroke="black" stroke-width="4.252" stroke-linecap="round" stroke-linejoin="round"/>
<path d="M80.7714 143.243C80.2585 144.175 79.7456 145.106 79.2324 146.038C80.4857 145.491 81.799 145.018 83.1553 144.626" stroke="black" stroke-width="4.252" stroke-linecap="round" stroke-linejoin="round"/>
<path d="M18.8105 112.564C36.4926 125.873 66.0393 142.97 84.932 154.89" stroke="black" stroke-width="4.252" stroke-linecap="round" stroke-linejoin="round"/>
<path d="M16.5879 115.172C34.27 128.48 64.3912 145.442 83.2839 157.362" stroke="black" stroke-width="4.252" stroke-linecap="round" stroke-linejoin="round"/>
<path d="M15.6006 117.283C33.2827 130.591 62.1442 146.865 81.0372 158.785" stroke="black" stroke-width="4.252" stroke-linecap="round" stroke-linejoin="round"/>
<path d="M14.6123 119.394C32.2944 132.702 60.421 149.038 79.3138 160.958" stroke="black" stroke-width="4.252" stroke-linecap="round" stroke-linejoin="round"/>
<path d="M20.2189 113.436C20.1971 112.708 20.164 111.964 19.8954 111.288C19.6266 110.611 19.0744 110.003 18.3595 109.865C17.6443 109.726 16.811 110.205 16.7344 110.929C16.6023 109.6 15.2368 108.525 13.9133 108.71C12.5899 108.895 11.5708 110.302 11.8078 111.617C11.1011 111.029 10.3654 110.426 9.4797 110.181C8.59401 109.936 7.5112 110.151 7.01609 110.926C6.49645 111.738 6.81498 112.874 7.49097 113.562C8.16696 114.25 9.11181 114.591 10.0288 114.89C9.07012 115.259 8.60965 116.474 8.90886 117.456C9.20777 118.439 10.1183 119.153 11.1088 119.425C12.099 119.697 13.1579 119.584 14.154 119.334" stroke="black" stroke-width="4.252" stroke-linecap="round" stroke-linejoin="round"/>
<path d="M76.8988 149.651C79.0822 147.89 81.8996 146.829 84.9748 146.829C91.9113 146.829 97.5344 152.225 97.5344 158.881C97.5344 165.536 91.9113 170.932 84.9748 170.932C78.0383 170.932 72.4152 165.536 72.4152 158.881C72.4152 158.374 72.402 158.212 72.4652 157.722" stroke="black" stroke-width="4.252" stroke-linecap="round" stroke-linejoin="round"/>
<path d="M83.5887 161.721C83.5887 162.583 82.6766 163.281 81.5515 163.281C80.4267 163.281 79.5146 162.583 79.5146 161.721C79.5146 160.859 80.4267 160.16 81.5515 160.16C82.6766 160.16 83.5887 160.859 83.5887 161.721Z" stroke="black" stroke-width="4.252" stroke-linecap="round" stroke-linejoin="round"/>
<path d="M85.4959 159.12C85.4959 159.982 84.5838 160.681 83.4587 160.681C82.3339 160.681 81.4219 159.982 81.4219 159.12C81.4219 158.258 82.3339 157.56 83.4587 157.56C84.5838 157.56 85.4959 158.258 85.4959 159.12Z" stroke="black" stroke-width="4.252" stroke-linecap="round" stroke-linejoin="round"/>
<path d="M87.7059 156.606C87.7059 157.469 86.7938 158.167 85.6687 158.167C84.5439 158.167 83.6318 157.469 83.6318 156.606C83.6318 155.745 84.5439 155.046 85.6687 155.046C86.7938 155.046 87.7059 155.745 87.7059 156.606Z" stroke="black" stroke-width="4.252" stroke-linecap="round" stroke-linejoin="round"/>
<path d="M131.569 91.9754C137.126 89.1789 142.801 86.6166 148.574 84.2974C153.272 82.4101 158.315 80.6544 163.302 81.5312C164.613 81.7617 165.279 82.9521 164.269 84.114C163.539 84.9547 162.264 85.2257 161.294 85.6969C160.093 86.2793 158.932 86.9486 157.816 87.6785C155.51 89.1859 153.393 90.9828 151.536 93.0165C151.09 93.5049 150.633 94.0751 150.653 94.7361C150.678 95.5375 151.434 96.162 152.22 96.3199C153.006 96.4774 153.815 96.2809 154.594 96.0936C158.571 95.1368 162.598 94.3842 166.652 93.84C167.645 93.7063 168.673 93.588 169.634 93.8707C170.596 94.1533 171.48 94.9418 171.557 95.9406C171.629 96.8668 171.016 97.7423 171.079 98.6691C171.158 99.8371 172.326 100.692 173.489 100.829C174.651 100.966 175.802 100.566 176.904 100.17" stroke="black" stroke-width="4.252" stroke-linecap="round" stroke-linejoin="round"/>
<path d="M114.201 93.7724C121.488 89.8277 128.969 86.1142 136.617 82.6448C142.841 79.8206 149.557 77.0802 156.546 77.1716" stroke="black" stroke-width="4.252" stroke-linecap="round" stroke-linejoin="round"/>
<path d="M133.084 79.8542C133.607 80.6534 132.902 82.041 131.509 82.9527C130.116 83.8648 128.562 83.9558 128.039 83.1566C127.516 82.3574 128.221 80.9701 129.614 80.0581C131.007 79.146 132.561 79.055 133.084 79.8542Z" fill="black"/>
<path d="M137.432 70.5828C137.432 70.5828 133.676 70.6815 132.489 67.9141C131.303 65.1464 132.489 80.4676 132.489 80.4676" stroke="black" stroke-width="4.252" stroke-linecap="round" stroke-linejoin="round"/>
<path d="M109.767 147.316C103.049 142.656 92.8769 144.826 85.5177 141.112C78.5677 137.605 74.2739 129.012 66.0777 129.184C61.5586 129.28 57.2754 132.247 54.4109 135.886C50.3798 141.006 49.2454 147.932 49.8157 153.779C50.2228 157.957 52.4151 161.767 56.1632 163.542C60.2639 165.484 65.456 165.123 69.4068 167.313C75.0057 170.416 76.6351 177.706 81.3906 181.901C85.9876 185.958 93.3285 186.578 99.6261 183.973C105.923 181.369 111.078 175.832 113.762 169.601C117.196 161.627 116.239 151.804 109.767 147.316Z" stroke="black" stroke-width="4.252" stroke-linecap="round" stroke-linejoin="round"/>
<path d="M71.2593 184.338C71.3504 196.792 70.369 209.253 68.3291 221.539C72.5175 221.542 76.704 222.345 80.5968 223.89" stroke="black" stroke-width="4.252" stroke-linecap="round" stroke-linejoin="round"/>
<path d="M88.8346 185.733C88.7436 198.186 89.7249 218.095 91.7648 230.381C87.5764 230.384 83.3899 231.186 79.4971 232.731" stroke="black" stroke-width="4.252" stroke-linecap="round" stroke-linejoin="round"/>
<path d="M27.1417 124.784C22.6185 126.562 19.5041 131.209 19.1193 136.054C18.7346 140.899 20.8965 145.778 24.4282 149.117C27.9596 152.456 32.743 154.315 37.5841 154.747" stroke="black" stroke-width="4.252" stroke-linecap="round" stroke-linejoin="round"/>
<path d="M27.0967 124.635C27.2702 124.017 27.4437 123.399 27.6169 122.781" stroke="black" stroke-width="4.252" stroke-linecap="round" stroke-linejoin="round"/>
<path d="M26.8594 124.939C28.0323 124.78 29.2347 124.839 30.3862 125.113" stroke="black" stroke-width="4.252" stroke-linecap="round" stroke-linejoin="round"/>
<path d="M78.5604 126.558C72.6087 123.523 69.0558 118.568 70.6248 115.491C72.1936 112.415 78.2906 112.381 84.2421 115.416C90.1939 118.452 93.7467 123.406 92.1777 126.483C90.609 129.559 84.5122 129.593 78.5604 126.558Z" fill="black"/>
<path d="M88.7998 99.8451C88.8587 102.835 91.0163 105.666 93.8837 106.516C96.7513 107.366 100.103 106.167 101.781 103.692" stroke="black" stroke-width="4.252" stroke-linecap="round" stroke-linejoin="round"/>
<path d="M69.3965 101.269C70.8935 103.858 74.1508 105.293 77.0715 104.651C79.9925 104.009 82.3473 101.339 82.6201 98.3615" stroke="black" stroke-width="4.252" stroke-linecap="round" stroke-linejoin="round"/>
<path d="M7.84207 188.283C7.84207 188.283 13.3423 194.531 3.51758 205.043C3.51758 205.043 16.1682 205.647 10.9581 215.229C10.9581 215.229 18.0359 210.077 23.5885 214.425C23.5885 214.425 28.4295 204.239 37.882 203.966C37.882 203.966 29.4801 197.937 38.7245 187.469C38.7245 187.469 26.2569 192.588 27.2621 180.405C27.2621 180.405 14.9616 192.902 7.84207 188.283Z" fill="#FF5A3D"/>
<path d="M10.1924 201.949L20.1933 229.031L52.4262 216.408L44.5427 188.724L10.1924 201.949Z" stroke="black" stroke-width="4.252" stroke-linecap="round" stroke-linejoin="round"/>
<path d="M10.1925 201.949L3 205.865L13.3906 230.104L20.1934 229.031" stroke="black" stroke-width="4.252" stroke-linecap="round" stroke-linejoin="round"/>
<path d="M10.6182 196.072L12.3635 200.798L17.9887 198.595L16.6132 193.764L10.6182 196.072Z" stroke="black" stroke-width="4.252" stroke-linecap="round" stroke-linejoin="round"/>
<path d="M27.6896 209.782C29.0621 214.202 33.359 216.534 37.666 215.197C41.973 213.859 44.1932 209.504 42.8207 205.084C41.4482 200.663 37.1516 198.331 32.8446 199.669C28.5375 201.006 26.317 205.361 27.6896 209.782Z" stroke="black" stroke-width="4.252" stroke-linecap="round" stroke-linejoin="round"/>
<path d="M32.2446 208.368C32.9831 210.747 34.9301 212.257 36.593 211.74C38.2555 211.224 39.0048 208.877 38.2662 206.498C37.5274 204.119 35.5807 202.609 33.9178 203.125C32.255 203.641 31.5057 205.989 32.2446 208.368Z" stroke="black" stroke-width="4.252" stroke-linecap="round" stroke-linejoin="round"/>
<path d="M29.9944 200.934L21.2256 206.387" stroke="black" stroke-width="4.252" stroke-linecap="round" stroke-linejoin="round"/>
<path d="M37.041 215.614L28.0664 220.109" stroke="black" stroke-width="4.252" stroke-linecap="round" stroke-linejoin="round"/>
</svg>
