<svg width="676" height="528" viewBox="0 0 676 528" fill="none" xmlns="http://www.w3.org/2000/svg">
<path d="M621.267 111.188C601.814 111.188 587.097 126.29 587.097 146.254C587.097 166.219 601.814 181.32 621.267 181.32C640.719 181.32 655.437 166.219 655.437 146.254C655.437 126.29 640.719 111.188 621.267 111.188Z" stroke="black" stroke-width="4.252" stroke-linecap="round" stroke-linejoin="round"/>
<path d="M648.192 146.254C648.192 135.509 642.103 126.798 634.593 126.798C627.083 126.798 620.995 135.509 620.995 146.254C620.995 156.999 627.083 165.71 634.593 165.71C642.103 165.71 648.192 156.999 648.192 146.254Z" fill="black"/>
<path d="M622.138 96.7336C608.346 96.0196 593.341 99.2816 579.875 100.505C539.967 104.126 500.058 107.748 460.149 111.37C425.841 114.483 391.533 117.596 357.224 120.71V177.114C421.587 182.505 485.951 187.897 550.315 193.289C592.192 196.797 673.459 215.744 673.46 147.989C673.461 122.466 654.117 101.877 629.421 97.5356C627.043 97.1176 624.611 96.8616 622.138 96.7336Z" stroke="black" stroke-width="4.252" stroke-linecap="round" stroke-linejoin="round"/>
<path d="M507.978 119.89C506.54 137.845 508.766 156.086 514.483 173.168" stroke="black" stroke-width="4.252" stroke-linecap="round" stroke-linejoin="round"/>
<path d="M594.35 108.572C581.501 115.956 573.068 130.46 573.006 145.279C572.944 160.097 581.256 174.672 594.042 182.163" stroke="black" stroke-width="4.252" stroke-linecap="round" stroke-linejoin="round"/>
<path d="M367.39 110.732C382.287 132.305 383.258 162.64 369.77 185.123" stroke="black" stroke-width="4.252" stroke-linecap="round" stroke-linejoin="round"/>
<path d="M172.409 11.4505C154.829 11.4505 135.045 -3.80252 119.182 1.34848C102.742 6.68649 95.7416 30.8345 82.0576 40.7935C68.2366 50.8515 43.1436 50.1165 33.0856 63.9375C23.1266 77.6215 31.5126 101.21 26.1746 117.65C21.0246 133.513 0.203613 147.587 0.203613 165.167C0.203613 182.746 21.0246 196.821 26.1756 212.684C31.5126 229.124 23.1266 252.713 33.0856 266.397C43.1446 280.219 68.2376 279.483 82.0586 289.542C95.7426 299.501 102.742 323.647 119.182 328.986C135.045 334.136 154.829 318.884 172.409 318.884C189.989 318.884 209.774 334.136 225.637 328.985C242.077 323.647 249.076 299.5 262.761 289.541C276.581 279.482 301.674 280.217 311.733 266.396C321.691 252.712 313.305 229.123 318.643 212.683C323.793 196.821 344.614 182.746 344.614 165.167C344.614 147.587 323.793 133.512 318.642 117.649C313.305 101.209 321.691 77.6205 311.731 63.9355C301.673 50.1155 276.58 50.8505 262.759 40.7925C249.075 30.8335 242.076 6.68549 225.636 1.34747C209.773 -3.80252 189.989 11.4505 172.409 11.4505Z" fill="#FFDD59"/>
<path d="M146.685 303.721C148.173 374.214 156.92 444.553 172.746 513.264C158.041 514.554 143.609 518.863 130.603 525.844" stroke="black" stroke-width="4.252" stroke-linecap="round" stroke-linejoin="round"/>
<path d="M214.214 290.18C212.727 360.673 203.979 431.012 188.153 499.722C202.858 501.013 217.291 505.322 230.296 512.303" stroke="black" stroke-width="4.252" stroke-linecap="round" stroke-linejoin="round"/>
<path d="M285.09 253.179C295.979 269.974 306.867 286.77 317.756 303.565C322.255 310.504 327.706 318.088 335.879 319.361C342.009 320.315 348.215 317.259 352.572 312.842C356.93 308.425 359.773 302.774 362.545 297.222C376.303 269.668 390.061 242.115 403.819 214.561C410.771 200.641 417.902 184.991 413.456 170.08" stroke="black" stroke-width="4.252" stroke-linecap="round" stroke-linejoin="round"/>
<path d="M416.498 183.523C423.62 179.197 428.768 171.75 430.297 163.557" stroke="black" stroke-width="4.252" stroke-linecap="round" stroke-linejoin="round"/>
<path d="M178.942 231.244C173.214 225.439 168.404 211.552 179.832 208.826C186.802 207.164 194.827 212.871 198.598 219.681C202.979 227.596 195.07 235.327 190.736 236.084C186.203 236.876 182.006 234.348 178.942 231.244Z" fill="black"/>
<path d="M263.411 103.442C238.892 103.442 220.342 122.477 220.342 147.641C220.342 172.806 238.892 191.84 263.411 191.84C287.93 191.84 306.482 172.806 306.482 147.641C306.482 122.477 287.93 103.442 263.411 103.442Z" fill="white"/>
<path d="M297.35 147.641C297.35 134.097 289.676 123.118 280.209 123.118C270.743 123.118 263.069 134.097 263.069 147.641C263.069 161.185 270.743 172.165 280.209 172.165C289.676 172.165 297.35 161.185 297.35 147.641Z" fill="black"/>
</svg>
