<svg width="411" height="177" viewBox="0 0 411 177" fill="none" xmlns="http://www.w3.org/2000/svg">
<path d="M170.286 177C132.665 177 97.5527 172.419 68.5311 163.537C27.2986 150.946 3.0607 130.984 0.271842 107.42C-1.14195 95.5163 2.96387 83.516 12.4731 71.7481C40.6716 36.803 112.485 9.25757 195.318 1.51889C249.081 -3.49818 301.353 4.11459 331.72 21.3838C332.034 21.5618 332.309 21.7999 332.53 22.0844C332.752 22.3689 332.915 22.6942 333.011 23.0418C333.107 23.3895 333.133 23.7525 333.089 24.1103C333.044 24.4681 332.929 24.8137 332.751 25.1272C332.573 25.4407 332.335 25.7161 332.051 25.9376C331.767 26.1591 331.441 26.3224 331.094 26.4182C330.746 26.514 330.383 26.5404 330.025 26.4959C329.668 26.4513 329.322 26.3368 329.009 26.1587C299.561 9.41253 248.529 2.06127 195.831 6.98149C155.276 10.7782 116.784 19.3692 84.538 31.9603C53.2602 44.0574 29.826 59.0796 16.7435 75.2058C8.20267 85.7727 4.49387 96.3879 5.72368 106.78C8.2414 128.088 31.1139 146.346 70.1289 158.288C109.919 170.462 161.435 174.404 215.169 169.387C255.733 165.6 294.216 156.98 326.472 144.457C357.74 132.311 381.184 117.338 394.256 101.163C402.797 90.6057 406.506 79.9808 405.276 69.598C403.514 54.663 391.448 40.9484 370.416 29.8876C369.819 29.5256 369.383 28.9495 369.196 28.2769C369.009 27.6042 369.086 26.8857 369.411 26.2679C369.736 25.6501 370.284 25.1795 370.944 24.9523C371.604 24.725 372.326 24.7581 372.962 25.0449C395.699 36.9483 408.791 52.1641 410.728 68.9394C412.142 80.8525 408.036 92.8528 398.527 104.611C370.29 139.537 298.515 167.111 215.682 174.84C200.305 176.274 185.102 177 170.286 177Z" fill="#FFDD59"/>
</svg>
