<svg id="Capa_1" data-name="Capa 1" xmlns="http://www.w3.org/2000/svg" viewBox="0 0 243.45 243.45"><title>Frame1</title><path d="M0,0V243.45H243.45V0ZM181.4,121.87c0,.32,0,.64,0,.95a38,38,0,0,1,12.49,1.89c14.69,4.78,23.9,17,20.56,27.24s-18,14.73-32.65,10A38,38,0,0,1,170.44,156q-.58.82-1.2,1.62a37.68,37.68,0,0,1,9.1,8.93c9.08,12.5,9.36,27.78.62,34.13S155.78,202,146.7,189.53a37.57,37.57,0,0,1-5.83-11.86c-.64.2-1.29.4-1.94.58a37.81,37.81,0,0,1,2.25,13c0,15.45-8.75,28-19.55,28s-19.56-12.53-19.56-28a37.6,37.6,0,0,1,2.48-13.61c-.66-.22-1.32-.43-2-.67a37.57,37.57,0,0,1-6,12.44c-9.08,12.5-23.53,17.48-32.27,11.14s-8.45-21.63.63-34.13a37.26,37.26,0,0,1,10.49-9.85q-.65-.87-1.26-1.77a37.38,37.38,0,0,1-12.58,6.91C46.92,166.49,32.3,162,29,151.77s5.87-22.47,20.57-27.25a37.1,37.1,0,0,1,14.56-1.77c0-.3,0-.59,0-.88,0-.45,0-.9,0-1.35a37.1,37.1,0,0,1-14.52-1.78C34.89,114,25.68,101.77,29,91.5s18-14.73,32.65-10a37.22,37.22,0,0,1,12.75,7.06c.42-.61.84-1.21,1.28-1.8a37.32,37.32,0,0,1-10.58-9.9c-9.08-12.5-9.36-27.78-.63-34.13s23.19-1.36,32.27,11.14a37.56,37.56,0,0,1,6.06,12.76c.67-.24,1.34-.46,2-.68a37.51,37.51,0,0,1-2.56-13.8c0-15.46,8.76-28,19.56-28s19.55,12.52,19.55,28A37.76,37.76,0,0,1,139,65.52c.65.18,1.29.38,1.93.59A37.62,37.62,0,0,1,146.86,54c9.08-12.5,23.53-17.49,32.26-11.14s8.46,21.63-.62,34.13a37.89,37.89,0,0,1-9.28,9.07c.41.53.8,1.07,1.2,1.61a37.5,37.5,0,0,1,11.42-6c14.7-4.78,29.32-.32,32.66,10s-5.88,22.47-20.57,27.24a37.83,37.83,0,0,1-12.56,1.89C181.38,121.17,181.4,121.52,181.4,121.87Z"/></svg>