<svg width="373" height="375" viewBox="0 0 373 375" fill="none" xmlns="http://www.w3.org/2000/svg">
<g clip-path="url(#clip0_320_2)">
<path d="M186.815 110.55C171.879 110.55 160.158 86.2682 160.158 55.2748C160.158 24.2814 171.879 0 186.815 0C201.752 0 213.492 24.2814 213.492 55.2748C213.492 86.2682 201.771 110.55 186.815 110.55ZM186.815 3.37571C174.187 3.37571 163.532 27.0649 163.532 55.2748C163.532 83.4847 174.187 107.174 186.815 107.174C199.443 107.174 210.118 83.4847 210.118 55.2748C210.118 27.0649 199.463 3.35597 186.815 3.35597V3.37571Z" fill="#FEB2EA"/>
<path d="M186.815 110.55C171.879 110.55 160.158 86.2682 160.158 55.2748C160.158 24.2814 171.879 0 186.815 0C201.752 0 213.492 24.2814 213.492 55.2748C213.492 86.2682 201.771 110.55 186.815 110.55ZM186.815 3.37571C174.187 3.37571 163.532 27.0649 163.532 55.2748C163.532 83.4847 174.187 107.174 186.815 107.174C199.443 107.174 210.118 83.4847 210.118 55.2748C210.118 27.0649 199.463 3.35597 186.815 3.35597V3.37571Z" fill="#FEB2EA"/>
<path d="M167.953 112.524C161.56 112.524 154.792 108.162 148.597 99.9296C141.73 90.8093 136.285 77.8592 133.266 63.6259C130.247 49.3927 129.99 35.5345 132.555 24.3216C135.219 12.7731 140.645 5.56765 147.847 4.02785C162.488 0.928512 178.983 22.229 185.475 52.5315C191.848 82.9129 185.475 109.03 170.814 112.13C169.877 112.361 168.918 112.493 167.953 112.524ZM150.688 7.0877C149.973 7.08947 149.259 7.16221 148.557 7.30485C142.638 8.54854 138.179 14.8657 135.831 25.0718C133.364 35.7121 133.621 49.1558 136.541 62.935C139.461 76.7142 144.71 89.0721 151.28 97.7976C157.575 106.168 164.283 110.096 170.124 108.853C182.475 106.227 187.882 80.7611 182.12 53.2422C176.615 27.2827 162.626 7.0877 150.688 7.0877Z" fill="#FEB2EA"/>
<path d="M167.952 112.524C161.559 112.524 154.791 108.162 148.596 99.9296C141.729 90.8093 136.283 77.8592 133.265 63.6259C130.226 49.3532 129.989 35.5345 132.554 24.3216C135.218 12.7731 140.644 5.56765 147.846 4.02785C162.487 0.928512 178.982 22.229 185.473 52.5315C191.965 82.8339 185.473 109.03 170.872 112.13C169.916 112.365 168.937 112.497 167.952 112.524V112.524ZM150.687 7.0877C149.971 7.08947 149.258 7.16221 148.556 7.30485C142.637 8.54854 138.178 14.8657 135.83 25.0718C133.363 35.7121 133.62 49.1558 136.54 62.935C139.46 76.7537 144.709 89.0721 151.279 97.7976C157.573 106.168 164.282 110.096 170.123 108.853C182.474 106.227 187.881 80.7611 182.119 53.2422C176.614 27.2827 162.625 7.0877 150.687 7.0877Z" fill="#FEB2EA"/>
<path d="M149.662 118.249C136.462 118.249 119.592 101.923 108.68 77.405C96.0916 49.0964 96.8414 22.1302 110.653 16.0697C117.303 13.0888 125.925 15.7933 134.864 23.4923C143.466 30.9741 151.477 42.4239 157.397 55.7096C169.985 84.0182 169.235 110.984 155.424 117.045C153.607 117.841 151.645 118.251 149.662 118.249ZM116.415 18.2215C114.873 18.2124 113.347 18.5286 111.936 19.1493C100.393 24.2819 100.314 50.3401 111.739 76.0428C121.821 98.7055 138.119 114.873 149.721 114.873C151.24 114.882 152.744 114.58 154.141 113.985C165.743 108.833 165.743 82.7745 154.319 57.0717C148.597 44.2204 140.921 33.2049 132.614 26.0192C126.754 20.8865 121.15 18.2215 116.415 18.2215Z" fill="#FEB2EA"/>
<path d="M149.662 118.249C136.462 118.249 119.592 101.923 108.68 77.405C96.0916 49.0964 96.8414 22.1302 110.653 16.0697C117.303 13.0888 125.925 15.7933 134.864 23.4923C143.466 30.9741 151.477 42.4239 157.397 55.7096C169.985 84.0182 169.235 110.984 155.424 117.045C153.607 117.841 151.645 118.251 149.662 118.249ZM111.739 76.0428C123.183 101.706 142.598 119.118 154.141 113.985C165.684 108.852 165.763 82.7745 154.319 57.0717C148.597 44.2204 140.921 33.2049 132.614 26.0192C124.722 19.1493 117.342 16.7014 111.877 19.1493C100.393 24.2819 100.314 50.3401 111.739 76.0428Z" fill="#FEB2EA"/>
<path d="M132.396 127.783C126.675 127.505 121.113 125.802 116.216 122.828C106.351 117.3 96.051 107.765 87.5074 95.9999C69.2954 70.9288 64.5204 44.4166 76.596 35.5332C88.6715 26.6497 112.428 39.4814 130.64 64.5722C139.184 76.4168 145.083 88.9918 147.254 100.106C149.523 111.753 147.49 120.538 141.532 124.861C138.883 126.799 135.677 127.824 132.396 127.783ZM85.6921 36.2241C83.1527 36.1453 80.6554 36.8859 78.5691 38.3364C68.3483 45.759 73.6955 71.2644 90.2105 94.0257C98.478 105.416 108.304 114.596 117.834 119.886C126.99 124.98 134.705 125.809 139.539 122.315C144.373 118.82 146.011 111.2 144.037 100.915C141.946 90.1763 136.145 77.9961 127.976 66.6252C114.559 48.2266 97.2349 36.2241 85.6921 36.2241Z" fill="#FEB2EA"/>
<path d="M132.396 127.783C126.675 127.505 121.113 125.802 116.216 122.828C106.351 117.3 96.051 107.765 87.5074 95.9999C69.2954 70.9288 64.5204 44.4166 76.596 35.5332C88.6715 26.6497 112.428 39.4814 130.64 64.5722C139.184 76.4168 145.083 88.9918 147.254 100.106C149.523 111.753 147.49 120.538 141.532 124.861C138.883 126.799 135.677 127.824 132.396 127.783ZM90.2105 94.0257C98.478 105.416 108.304 114.596 117.834 119.886C126.99 124.98 134.705 125.809 139.539 122.315C144.373 118.82 146.011 111.2 144.037 100.915C141.946 90.1763 136.145 77.9961 127.976 66.6252C111.382 43.8639 88.7899 30.9138 78.5691 38.3364C68.3483 45.759 73.6955 71.2644 90.2105 94.0257Z" fill="#FEB2EA"/>
<path d="M116.099 140.871C103.669 140.871 86.5024 132.857 70.7174 118.584C59.9047 108.852 51.4991 97.7176 47.0399 87.2154C42.403 76.2986 42.5806 67.277 47.4937 61.789C57.4974 50.6748 83.3651 58.2159 106.392 78.9439C117.185 88.696 125.59 99.8299 130.069 110.332C134.706 121.249 134.548 130.271 129.615 135.739C127.863 137.516 125.749 138.894 123.417 139.779C121.084 140.665 118.589 141.038 116.099 140.871V140.871ZM60.7136 60.0913C58.7407 59.9463 56.7595 60.2234 54.9019 60.9042C53.0443 61.5849 51.3529 62.6537 49.9404 64.0395C45.9941 68.4812 45.9941 76.2591 50.0785 85.8928C54.3404 95.9607 62.45 106.68 72.8878 116.096C93.803 134.929 118.585 142.885 127.03 133.508C130.977 129.047 130.977 121.288 126.912 111.655C122.63 101.587 114.541 90.8675 104.083 81.451C89.1464 68.0074 72.2367 60.0913 60.7136 60.0913Z" fill="#FEB2EA"/>
<path d="M116.099 140.871C103.669 140.871 86.5024 132.857 70.7174 118.584C59.9047 108.852 51.4991 97.7176 47.0399 87.2154C42.403 76.2986 42.5806 67.277 47.4937 61.789C57.4974 50.6748 83.3651 58.2159 106.392 78.9439C117.185 88.696 125.59 99.8299 130.069 110.332C134.706 121.249 134.548 130.271 129.615 135.739C127.863 137.516 125.749 138.894 123.417 139.779C121.084 140.665 118.589 141.038 116.099 140.871V140.871ZM60.7136 60.0913C58.7407 59.9463 56.7595 60.2234 54.9019 60.9042C53.0443 61.5849 51.3529 62.6537 49.9404 64.0395C45.9941 68.4812 45.9941 76.2591 50.0785 85.8928C54.3404 95.9607 62.45 106.68 72.8878 116.096C93.803 134.929 118.585 142.885 127.03 133.508C130.977 129.047 130.977 121.288 126.912 111.655C122.63 101.587 114.541 90.8675 104.083 81.451C89.1464 68.0074 72.2367 60.0913 60.7136 60.0913Z" fill="#FEB2EA"/>
<path d="M100.373 157.277C88.7708 157.277 73.8145 152.835 58.9371 144.188C32.0434 128.711 16.8898 106.424 24.3482 93.4737C31.8066 80.5236 58.7003 82.4977 85.5151 97.9944C98.1234 105.279 108.66 114.439 115.112 123.776C121.9 133.489 123.616 142.352 119.946 148.729C116.71 154.454 109.607 157.277 100.373 157.277ZM43.8229 88.3805C35.9304 88.3805 29.8927 90.5915 27.2684 95.1517C20.9544 106.088 36.1869 127.231 60.5353 141.286C84.8837 155.342 110.791 157.928 117.125 147.051C120.104 141.859 118.387 134.239 112.468 125.691C106.194 116.748 96.0319 107.924 83.8577 100.916C69.6315 92.7828 54.8922 88.3805 43.8229 88.3805Z" fill="#FEB2EA"/>
<path d="M100.373 157.277C88.7708 157.277 73.8145 152.835 58.9371 144.188C32.0434 128.711 16.8898 106.424 24.3482 93.4737C31.8066 80.5236 58.7003 82.4977 85.5151 97.9944C98.1234 105.279 108.66 114.439 115.112 123.776C121.9 133.489 123.616 142.352 119.946 148.729C116.71 154.454 109.607 157.277 100.373 157.277ZM43.8229 88.3805C35.9304 88.3805 29.8927 90.5915 27.2684 95.1517C20.9544 106.088 36.1869 127.231 60.5353 141.286C84.8443 155.362 110.791 157.928 117.125 147.051C120.104 141.859 118.387 134.239 112.468 125.691C106.194 116.748 96.0319 107.924 83.8577 100.916C69.6315 92.7828 54.8922 88.3805 43.8229 88.3805Z" fill="#FEB2EA"/>
<path d="M83.5808 176.978C73.0603 176.838 62.6244 175.073 52.6422 171.746C38.8303 167.245 26.5969 160.494 18.2703 152.716C9.6083 144.622 6.0764 136.311 8.40469 129.303C10.733 122.295 18.4085 117.656 30.1091 116.195C41.4348 114.754 55.2467 116.472 69.0586 120.953C82.8705 125.434 95.1631 132.264 103.509 140.003C112.171 148.077 115.684 156.388 113.375 163.396C111.067 170.404 103.371 175.063 91.6707 176.504C88.9863 176.827 86.2846 176.985 83.5808 176.978ZM38.1989 119.038C35.634 119.028 33.0708 119.173 30.5235 119.472C20.1251 120.755 13.377 124.585 11.5222 130.29C9.6675 135.995 12.8837 143.043 20.5394 150.189C28.5306 157.651 40.2707 164.146 53.6682 168.489C67.0658 172.832 80.3844 174.51 91.1577 173.168C101.556 171.904 108.304 168.055 110.139 162.369C111.974 156.684 108.797 149.597 101.142 142.451C93.2492 135.008 81.4104 128.494 68.0129 124.151C58.4038 120.922 48.3539 119.197 38.2187 119.038H38.1989Z" fill="#FEB2EA"/>
<path d="M83.5808 176.978C73.0603 176.838 62.6244 175.073 52.6422 171.746V171.746C38.8303 167.245 26.5969 160.494 18.2703 152.716C9.6083 144.622 6.0764 136.311 8.40469 129.303C10.733 122.295 18.4085 117.656 30.1091 116.195C41.4348 114.754 55.2467 116.472 69.0586 120.953C82.8705 125.434 95.1631 132.264 103.509 140.003C112.171 148.077 115.684 156.388 113.375 163.396C111.067 170.404 103.371 175.063 91.6707 176.504C88.9863 176.827 86.2846 176.985 83.5808 176.978ZM38.1989 119.038C35.634 119.028 33.0708 119.173 30.5235 119.472C20.1251 120.755 13.377 124.585 11.5222 130.29C9.6675 135.995 12.8837 143.043 20.5394 150.189C28.5306 157.651 40.2707 164.146 53.6682 168.489C67.0658 172.832 80.3844 174.51 91.1577 173.168C101.556 171.904 108.304 168.055 110.139 162.369C111.974 156.684 108.797 149.597 101.142 142.451C93.2492 135.008 81.4104 128.494 68.0129 124.151C58.4038 120.922 48.3539 119.197 38.2187 119.038H38.1989Z" fill="#FEB2EA"/>
<path d="M64.5009 200.53C60.4212 200.523 56.3446 200.305 52.2873 199.878C21.4868 196.641 -1.42124 182.447 0.137526 167.582C0.907046 160.258 7.49729 154.099 18.7047 150.23C29.5963 146.518 43.4082 145.314 57.8515 146.834C88.652 150.032 111.56 164.266 110.001 179.131C108.66 191.982 89.5399 200.53 64.5009 200.53ZM45.7957 149.539C36.9768 149.433 28.1997 150.767 19.8096 153.487C9.94397 156.902 4.02459 162.055 3.47211 168.016C2.16985 180.572 24.6832 193.68 52.6424 196.621C80.6017 199.562 105.345 191.429 106.667 178.854C107.989 166.279 85.4753 153.191 57.5161 150.249C53.6242 149.81 49.7121 149.573 45.7957 149.539V149.539Z" fill="#FEB2EA"/>
<path d="M64.5009 200.53C60.4212 200.523 56.3446 200.305 52.2873 199.878V199.878C21.4868 196.641 -1.42124 182.447 0.137526 167.582C0.907046 160.258 7.49729 154.099 18.7047 150.23C29.5963 146.518 43.4082 145.314 57.8515 146.834C88.652 150.032 111.56 164.266 110.001 179.131C108.66 191.982 89.5399 200.53 64.5009 200.53ZM52.6622 196.582C80.6214 199.523 105.364 191.39 106.686 178.815C108.008 166.24 85.495 153.151 57.5358 150.21C43.5463 148.729 30.1488 149.894 19.8293 153.448C9.9637 156.863 4.04432 162.015 3.49184 167.977C2.18958 180.532 24.703 193.64 52.6622 196.582Z" fill="#FEB2EA"/>
<path d="M45.5787 228.186C20.5397 228.186 1.42011 219.618 -0.000544113 206.787C-1.48039 191.902 21.4276 177.669 52.2281 174.471C66.6912 172.95 80.582 174.155 91.375 177.886C102.582 181.834 109.133 187.894 109.942 195.218C111.501 210.103 88.5929 224.277 57.7924 227.534C53.735 227.961 49.6584 228.179 45.5787 228.186V228.186ZM52.5636 177.807C24.6044 180.748 2.09097 193.856 3.41297 206.431C4.73496 219.006 29.478 227.12 57.4372 224.198C85.3964 221.276 107.91 208.149 106.548 195.574C105.917 189.651 100.116 184.459 90.2108 181.044C79.8914 177.491 66.5333 176.346 52.5044 177.807H52.5636Z" fill="#FEB2EA"/>
<path d="M45.5787 228.186C20.5397 228.186 1.42011 219.618 -0.000544113 206.787C-1.48039 191.902 21.4276 177.669 52.2281 174.471C66.6912 172.95 80.582 174.155 91.375 177.886C102.582 181.834 109.133 187.894 109.942 195.218C111.501 210.103 88.5929 224.277 57.7924 227.534C53.735 227.961 49.6584 228.179 45.5787 228.186V228.186ZM64.284 177.195C60.3692 177.196 56.4572 177.4 52.5636 177.807C24.6044 180.748 2.09097 193.856 3.41297 206.431C4.73496 219.006 29.478 227.12 57.4372 224.198C85.4161 221.257 107.91 208.168 106.608 195.593C105.976 189.671 100.175 184.479 90.27 181.064C81.8758 178.37 73.0986 177.063 64.284 177.195V177.195Z" fill="#FEB2EA"/>
<path d="M37.8651 258.765C22.4944 258.765 11.0306 254.007 8.1498 245.143C3.53268 230.91 22.9877 212.274 52.4465 202.7C81.9053 193.126 108.602 196.778 113.219 210.972C117.836 225.165 98.3809 243.84 68.9221 253.415C58.9088 256.795 48.4317 258.6 37.8651 258.765V258.765ZM53.4923 205.878C26.7367 214.584 7.43948 232.075 11.3463 244.097C15.2531 256.119 41.1405 258.922 67.8764 250.236C94.6122 241.55 113.929 224.04 110.022 212.018C106.116 199.996 80.2281 197.192 53.4923 205.878V205.878Z" fill="#FEB2EA"/>
<path d="M37.8651 258.765C22.4944 258.765 11.0306 254.007 8.1498 245.143C3.53268 230.91 22.9877 212.274 52.4465 202.7C81.9053 193.126 108.602 196.778 113.219 210.972C117.836 225.165 98.3809 243.84 68.9221 253.415C58.9088 256.795 48.4317 258.6 37.8651 258.765V258.765ZM83.3654 200.825C73.207 200.96 63.1305 202.665 53.4923 205.878C26.7367 214.584 7.43948 232.075 11.3463 244.097C15.2531 256.119 41.1405 258.922 67.8764 250.236C94.7109 241.531 113.929 224.04 110.022 212.018C107.655 204.733 97.197 200.825 83.3654 200.825V200.825Z" fill="#FEB2EA"/>
<path d="M43.6854 289.521C34.4511 289.521 27.3479 286.698 23.9541 280.973C20.2644 274.597 21.981 265.733 28.7883 256.02C35.3193 246.683 45.8558 237.523 58.3852 230.239C85.2 214.742 112.074 212.768 119.552 225.718C127.03 238.668 112.015 260.956 85.1803 276.373C70.2437 285.079 55.2479 289.521 43.6854 289.521ZM60.2005 233.16C48.0263 240.188 37.8647 248.953 31.6098 257.935C25.6905 266.522 23.9344 274.103 26.9335 279.295C33.2475 290.231 59.1547 287.606 83.5228 273.531C107.891 259.455 123.104 238.332 116.79 227.396C110.476 216.459 84.5686 219.124 60.2005 233.16V233.16Z" fill="#FEB2EA"/>
<path d="M43.6854 289.521C34.4511 289.521 27.3479 286.698 23.9541 280.973C20.2644 274.597 21.981 265.733 28.7883 256.02C35.3193 246.683 45.8558 237.523 58.3852 230.239C85.2 214.742 112.074 212.768 119.552 225.718C127.03 238.668 112.015 260.956 85.1803 276.373C70.2437 285.079 55.2479 289.521 43.6854 289.521ZM100.215 220.625C89.1462 220.625 74.407 224.948 60.2005 233.16C48.0263 240.188 37.8647 248.953 31.6098 257.935C25.6905 266.522 23.9344 274.103 26.9335 279.295C33.2475 290.231 59.1547 287.606 83.5228 273.531C107.891 259.455 123.104 238.332 116.79 227.396C114.165 222.836 108.128 220.625 100.215 220.625V220.625Z" fill="#FEB2EA"/>
<path d="M60.3589 317.83C57.896 317.988 55.428 317.612 53.123 316.73C50.818 315.848 48.7299 314.479 47.0008 312.717C42.068 307.249 41.9102 298.227 46.547 287.311C51.0063 276.808 59.4118 265.596 70.2246 255.922C93.2509 235.194 119.119 227.653 129.122 238.768C134.036 244.256 134.213 253.277 129.576 264.194C125.117 274.696 116.711 285.909 105.899 295.562C95.086 305.216 83.1288 312.5 72.2174 315.856C68.3821 317.09 64.3869 317.755 60.3589 317.83ZM115.824 237.07C104.3 237.07 87.3908 244.966 72.4147 258.43C61.9571 267.846 53.8673 278.565 49.5856 288.633C45.5013 298.267 45.4618 306.025 49.4672 310.487C53.4727 314.948 61.1876 315.698 71.1717 312.638C81.6292 309.44 93.1326 302.491 103.59 293.075C114.048 283.659 122.138 272.939 126.399 262.871C130.504 253.238 130.543 245.46 126.538 241.018C125.132 239.64 123.45 238.576 121.603 237.895C119.757 237.215 117.787 236.933 115.824 237.07Z" fill="#FEB2EA"/>
<path d="M60.3589 317.83C57.896 317.988 55.428 317.612 53.123 316.73C50.818 315.848 48.7299 314.479 47.0008 312.717C42.068 307.249 41.9102 298.227 46.547 287.311C51.0063 276.808 59.4118 265.596 70.2246 255.922C93.2509 235.194 119.119 227.653 129.122 238.768C134.036 244.256 134.213 253.277 129.576 264.194C125.117 274.696 116.711 285.909 105.899 295.562C95.086 305.216 83.1288 312.5 72.2174 315.856C68.3821 317.09 64.3869 317.755 60.3589 317.83ZM115.824 237.07C104.3 237.07 87.3908 244.966 72.4147 258.43C61.9571 267.846 53.8673 278.565 49.5856 288.633C45.5013 298.267 45.4618 306.025 49.4672 310.487C53.4727 314.948 61.1876 315.698 71.1717 312.638C81.6292 309.44 93.1326 302.491 103.59 293.075C114.048 283.659 122.138 272.939 126.399 262.871C130.504 253.238 130.543 245.46 126.538 241.018C125.132 239.64 123.45 238.576 121.603 237.895C119.757 237.215 117.787 236.933 115.824 237.07Z" fill="#FEB2EA"/>
<path d="M85.2584 341.776C81.9766 341.865 78.7531 340.896 76.0636 339.012C63.9684 330.208 68.7631 303.696 86.975 278.625C95.5187 266.78 105.72 257.324 115.684 251.797C126.063 246.052 135.04 245.262 140.999 249.586C146.958 253.909 148.99 262.714 146.741 274.361C144.551 285.554 138.651 298.208 130.108 309.895C115.783 329.675 98.064 341.776 85.2584 341.776ZM131.824 250.178C126.693 250.443 121.709 251.983 117.322 254.659C107.772 259.95 97.9456 269.129 89.6979 280.52C73.1829 303.281 67.8554 328.787 78.0565 336.209C88.2576 343.632 110.87 330.682 127.385 307.92C135.652 296.53 141.354 284.369 143.446 273.63C145.419 263.345 143.86 255.745 139.026 252.231C136.907 250.794 134.382 250.075 131.824 250.178V250.178Z" fill="#FEB2EA"/>
<path d="M85.2584 341.776C81.9766 341.865 78.7531 340.896 76.0636 339.012C63.9684 330.208 68.7631 303.696 86.975 278.625C95.5187 266.78 105.72 257.324 115.684 251.797C126.063 246.052 135.04 245.262 140.999 249.586C146.958 253.909 148.99 262.714 146.741 274.361C144.551 285.554 138.651 298.208 130.108 309.895C115.783 329.675 98.064 341.776 85.2584 341.776ZM131.824 250.178C126.693 250.443 121.709 251.983 117.322 254.659C107.772 259.95 97.9456 269.129 89.6979 280.52C73.1829 303.281 67.8554 328.787 78.0565 336.209C88.2576 343.632 110.87 330.682 127.385 307.92C135.652 296.53 141.354 284.369 143.446 273.63C145.419 263.345 143.86 255.745 139.026 252.231C136.907 250.794 134.382 250.075 131.824 250.178V250.178Z" fill="#FEB2EA"/>
<path d="M115.784 359.879C113.748 359.897 111.731 359.487 109.864 358.675C96.2104 352.575 95.3817 325.648 107.99 297.339C120.578 269.031 141.158 251.619 154.793 257.699C161.521 260.7 165.349 268.873 165.546 280.737C165.743 292.128 162.606 305.729 156.687 319.035C150.767 332.34 142.875 343.77 134.173 351.252C127.741 356.937 121.368 359.879 115.784 359.879ZM109.608 298.089L111.147 298.78C99.7028 324.444 99.8015 350.541 111.325 355.674C116.81 358.122 124.17 355.674 132.062 348.804C140.31 341.618 148.005 330.603 153.767 317.751C159.528 304.9 162.527 291.792 162.33 280.875C162.152 270.393 159.035 263.286 153.569 260.838C142.046 255.706 122.631 273.078 111.186 298.78L109.608 298.089Z" fill="#FEB2EA"/>
<path d="M115.784 359.879C113.748 359.897 111.731 359.487 109.864 358.675C96.2104 352.575 95.3817 325.648 107.99 297.339C120.598 269.031 141.158 251.619 154.793 257.699C161.521 260.7 165.349 268.873 165.546 280.737C165.743 292.128 162.606 305.729 156.687 319.035C150.767 332.34 142.875 343.77 134.173 351.252C127.741 356.937 121.368 359.879 115.784 359.879ZM149.13 259.871C137.508 259.871 121.23 276.039 111.147 298.701C99.7028 324.365 99.8015 350.462 111.325 355.595C116.81 358.043 124.17 355.595 132.062 348.725C140.31 341.539 148.005 330.524 153.767 317.672C159.489 304.801 162.527 291.713 162.33 280.796C162.152 270.314 159.035 263.207 153.569 260.759C152.167 260.157 150.655 259.854 149.13 259.871Z" fill="#FEB2EA"/>
<path d="M150.075 371.132C149.113 371.135 148.153 371.029 147.214 370.816C140.013 369.296 134.567 362.09 131.903 350.542C129.338 339.428 129.594 325.471 132.613 311.237C135.632 297.004 141.078 284.153 147.984 275.052C155.127 265.577 163.019 261.233 170.221 262.734C184.842 265.853 191.255 292.029 184.803 322.332C178.745 350.68 163.927 371.132 150.075 371.132ZM167.321 265.774C162.013 265.774 156.172 269.722 150.628 277.046C144.057 285.772 138.789 298.169 135.908 311.928C132.968 325.747 132.712 339.131 135.178 349.772C137.526 359.998 142.065 366.295 147.905 367.539C148.605 367.688 149.32 367.761 150.036 367.756C161.875 367.756 175.963 347.581 181.488 321.621C187.407 294.102 181.823 268.636 169.471 266.011C168.765 265.86 168.043 265.787 167.321 265.794V265.774Z" fill="#FEB2EA"/>
<path d="M150.075 371.132C149.113 371.135 148.153 371.029 147.214 370.816C140.013 369.296 134.567 362.09 131.903 350.542C129.338 339.428 129.594 325.471 132.613 311.237C135.632 297.004 141.078 284.153 147.984 275.052C155.127 265.577 163.019 261.233 170.221 262.734C184.842 265.853 191.255 292.029 184.803 322.332C178.745 350.68 163.927 371.132 150.075 371.132ZM167.321 265.774C162.013 265.774 156.172 269.722 150.628 277.046C144.057 285.772 138.789 298.169 135.908 311.928C133.028 325.688 132.712 339.131 135.178 349.772C137.526 359.998 142.065 366.295 147.905 367.539C160.257 370.164 175.627 349.14 181.448 321.621C187.368 294.102 181.784 268.636 169.432 266.011C168.738 265.863 168.03 265.79 167.321 265.794V265.774Z" fill="#FEB2EA"/>
<path d="M186.165 375.079C171.228 375.079 159.508 350.817 159.508 319.804C159.508 288.791 171.228 264.529 186.165 264.529C201.101 264.529 212.822 288.811 212.822 319.804C212.822 350.797 201.121 375.079 186.165 375.079ZM186.165 267.925C173.537 267.925 162.862 291.614 162.862 319.824C162.862 348.034 173.635 371.644 186.165 371.644C198.694 371.644 209.467 347.955 209.467 319.745C209.467 291.535 198.793 267.846 186.165 267.846V267.925Z" fill="#FEB2EA"/>
<path d="M186.165 375.079C171.228 375.079 159.508 350.817 159.508 319.804C159.508 288.791 171.228 264.529 186.165 264.529C201.101 264.529 212.822 288.811 212.822 319.804C212.822 350.797 201.121 375.079 186.165 375.079ZM186.165 267.925C173.537 267.925 162.862 291.614 162.862 319.824C162.862 348.034 173.635 371.644 186.165 371.644C198.694 371.644 209.467 347.955 209.467 319.745C209.467 291.535 198.793 267.846 186.165 267.846V267.925Z" fill="#FEB2EA"/>
<path d="M222.273 371.288C208.461 371.288 193.604 350.817 187.586 322.469C181.134 292.166 187.586 265.99 202.167 262.87C209.369 261.35 217.262 265.713 224.404 275.189C231.271 284.289 236.717 297.141 239.736 311.374C242.754 325.607 243.011 339.584 240.446 350.698C237.782 362.247 232.336 369.452 225.134 370.972C224.196 371.186 223.236 371.292 222.273 371.288V371.288ZM190.861 321.778C196.781 349.297 212.053 370.321 224.404 367.695C230.324 366.451 234.783 360.134 237.131 349.928C239.597 339.288 239.341 325.844 236.401 312.085C233.461 298.325 228.252 285.928 221.681 277.202C215.367 268.832 208.679 264.924 202.838 266.167C190.486 268.793 185.08 294.259 190.822 321.778H190.861Z" fill="#FEB2EA"/>
<path d="M222.273 371.288C208.461 371.288 193.604 350.817 187.586 322.469C181.134 292.166 187.586 265.99 202.167 262.87C209.369 261.35 217.262 265.713 224.404 275.189C231.271 284.289 236.717 297.141 239.736 311.374C242.754 325.607 243.011 339.584 240.446 350.698C237.782 362.247 232.336 369.452 225.134 370.972C224.196 371.186 223.236 371.292 222.273 371.288V371.288ZM205.048 265.93C204.318 265.929 203.59 266.008 202.878 266.167C190.526 268.793 185.119 294.259 190.861 321.778C196.603 349.297 212.053 370.321 224.404 367.695C230.324 366.451 234.783 360.134 237.131 349.928C239.597 339.288 239.341 325.844 236.401 312.085C233.481 298.266 228.252 285.928 221.681 277.202C216.176 269.859 210.336 265.93 205.048 265.93Z" fill="#FEB2EA"/>
<path d="M256.606 360.135C251.022 360.135 244.669 357.194 238.118 351.509C229.515 344.027 221.524 332.597 215.604 319.291C209.685 306.006 206.548 292.404 206.745 280.994C206.942 269.149 210.691 260.957 217.499 257.976C231.153 251.876 251.713 269.287 264.321 297.596C270.24 310.901 273.378 324.503 273.18 335.913C272.963 347.758 269.234 355.931 262.427 358.931C260.593 359.74 258.61 360.15 256.606 360.135ZM223.26 260.128C221.746 260.114 220.246 260.424 218.86 261.036C213.395 263.464 210.277 270.571 210.099 281.053C209.902 291.99 212.941 305.078 218.683 317.929C224.385 330.781 232.08 341.816 240.387 348.982C248.279 355.852 255.659 358.3 261.124 355.871C266.59 353.443 269.688 346.317 269.885 335.854C270.063 324.918 267.024 311.829 261.302 298.978C251.16 276.374 234.803 260.128 223.26 260.128Z" fill="#FEB2EA"/>
<path d="M256.606 360.135C251.022 360.135 244.669 357.194 238.118 351.509C229.515 344.027 221.524 332.597 215.604 319.291C209.685 305.986 206.548 292.404 206.745 280.994C206.942 269.149 210.691 260.957 217.499 257.976C231.153 251.876 251.713 269.287 264.321 297.596C270.24 310.901 273.378 324.503 273.18 335.913C272.963 347.758 269.234 355.931 262.427 358.931C260.593 359.74 258.61 360.15 256.606 360.135ZM223.26 260.128C221.746 260.114 220.246 260.424 218.86 261.036C213.395 263.464 210.277 270.571 210.099 281.053C209.902 291.99 212.941 305.078 218.683 317.929C224.424 330.781 232.08 341.816 240.387 348.982C248.279 355.852 255.659 358.3 261.124 355.871C266.59 353.443 269.688 346.317 269.885 335.854C270.063 324.918 267.024 311.829 261.302 298.978C251.16 276.374 234.803 260.128 223.26 260.128Z" fill="#FEB2EA"/>
<path d="M287.208 342.171C274.402 342.171 256.664 330.07 242.359 310.368C224.147 285.297 219.372 258.765 231.448 249.98C243.523 241.196 267.28 253.929 285.491 279.019C303.703 304.11 308.478 330.603 296.383 339.387C293.706 341.283 290.487 342.259 287.208 342.171ZM240.544 250.592C238.006 250.508 235.509 251.241 233.421 252.685C223.22 260.107 228.547 285.613 245.062 308.374C261.577 331.136 284.169 344.086 294.39 336.663C304.611 329.24 299.284 303.715 282.749 280.954C269.41 262.555 252.086 250.592 240.544 250.592V250.592Z" fill="#FEB2EA"/>
<path d="M287.208 342.171C274.402 342.171 256.664 330.07 242.359 310.368C224.147 285.297 219.372 258.765 231.448 249.98C243.523 241.196 267.28 253.929 285.491 279.019C303.703 304.11 308.478 330.603 296.383 339.387C293.706 341.283 290.487 342.259 287.208 342.171ZM240.544 250.592C238.006 250.508 235.509 251.241 233.421 252.685C223.22 260.107 228.547 285.613 245.062 308.374C261.577 331.136 284.189 344.086 294.39 336.663C304.591 329.24 299.284 303.715 282.749 280.954C269.41 262.555 252.086 250.592 240.544 250.592V250.592Z" fill="#FEB2EA"/>
<path d="M312.109 318.343C299.678 318.343 282.512 310.328 266.727 296.056C255.914 286.323 247.509 275.17 243.05 264.667C238.432 253.77 238.59 244.729 243.523 239.261C248.456 233.793 257.335 232.687 268.74 236.142C279.631 239.478 291.588 246.683 302.401 256.416C313.214 266.148 321.619 277.302 326.079 287.804C330.696 298.721 330.538 307.742 325.605 313.211C323.855 314.985 321.744 316.361 319.416 317.247C317.087 318.133 314.595 318.506 312.109 318.343V318.343ZM256.861 237.504C254.879 237.352 252.887 237.625 251.018 238.306C249.15 238.987 247.449 240.06 246.029 241.452C242.083 245.894 242.083 253.652 246.167 263.305C250.429 273.354 258.539 284.093 268.996 293.509C289.892 312.322 314.674 320.298 323.139 310.901C327.085 306.459 327.085 298.701 323.001 289.048C318.739 278.999 310.629 268.28 300.172 258.864C289.714 249.447 278.211 242.498 267.773 239.3C264.218 238.161 260.515 237.555 256.783 237.504H256.861Z" fill="#FEB2EA"/>
<path d="M312.109 318.343C299.678 318.343 282.512 310.328 266.727 296.056C255.914 286.323 247.509 275.17 243.05 264.667C238.432 253.77 238.59 244.729 243.523 239.261C248.456 233.793 257.335 232.687 268.74 236.142C279.631 239.478 291.588 246.683 302.401 256.416C313.214 266.148 321.619 277.302 326.079 287.804C330.696 298.721 330.538 307.742 325.605 313.211C323.855 314.985 321.744 316.361 319.416 317.247C317.087 318.133 314.595 318.506 312.109 318.343V318.343ZM256.861 237.504C254.879 237.352 252.887 237.625 251.018 238.306C249.15 238.987 247.449 240.06 246.029 241.452C242.083 245.894 242.083 253.652 246.167 263.305C250.429 273.354 258.539 284.093 268.996 293.509C289.892 312.322 314.674 320.298 323.139 310.901C327.085 306.459 327.085 298.701 323.001 289.048C318.739 278.999 310.629 268.28 300.172 258.864C289.714 249.447 278.211 242.498 267.773 239.3C264.218 238.161 260.515 237.555 256.783 237.504H256.861Z" fill="#FEB2EA"/>
<path d="M328.979 290.074C317.377 290.074 302.421 285.652 287.543 277.006C274.955 269.741 264.418 260.581 257.946 251.343C251.139 241.63 249.423 232.766 253.112 226.39C256.802 220.014 265.306 217.053 277.125 218.099C288.471 219.086 301.671 223.646 314.26 230.911C326.848 238.175 337.404 247.335 343.856 256.692C350.664 266.405 352.38 275.269 348.691 281.645C345.297 287.271 338.213 290.074 328.979 290.074ZM289.142 274.104C313.51 288.16 339.417 290.805 345.731 279.868C348.71 274.676 347.053 267.096 341.055 258.509C334.78 249.566 324.638 240.742 312.444 233.714C300.25 226.686 287.563 222.284 276.691 221.336C266.253 220.428 258.933 222.777 255.875 227.969C252.816 233.161 254.553 240.722 260.551 249.309C266.806 258.272 276.967 267.076 289.142 274.104Z" fill="#FEB2EA"/>
<path d="M328.979 290.074C317.377 290.074 302.421 285.652 287.543 277.006C274.955 269.741 264.418 260.581 257.946 251.343C251.139 241.63 249.423 232.766 253.112 226.39C256.802 220.014 265.306 217.053 277.125 218.099C288.471 219.086 301.671 223.646 314.26 230.911C326.868 238.195 337.404 247.335 343.856 256.692C350.664 266.405 352.38 275.269 348.691 281.645C345.297 287.271 338.213 290.074 328.979 290.074ZM272.469 221.099C264.26 221.099 258.44 223.468 255.875 227.93C252.895 233.102 254.553 240.682 260.551 249.27C266.806 258.232 276.967 267.037 289.142 274.065C313.51 288.12 339.417 290.765 345.731 279.829C348.71 274.637 347.053 267.056 341.055 258.469C334.78 249.526 324.638 240.702 312.444 233.674C300.25 226.647 287.563 222.244 276.691 221.297C275.231 221.218 273.81 221.099 272.469 221.099Z" fill="#FEB2EA"/>
<path d="M334.8 259.337C324.276 259.178 313.84 257.393 303.861 254.046C290.049 249.545 277.816 242.794 269.489 235.016C260.827 226.922 257.295 218.611 259.623 211.603C261.952 204.595 269.627 199.956 281.328 198.495C292.634 197.113 306.485 198.831 320.317 203.312C334.148 207.793 346.362 214.584 354.708 222.362C363.37 230.436 366.883 238.747 364.574 245.755C362.266 252.763 354.57 257.422 342.87 258.863C340.192 259.185 337.497 259.344 334.8 259.337V259.337ZM289.418 201.377C286.859 201.374 284.302 201.526 281.762 201.831C271.364 203.115 264.615 206.944 262.761 212.649C260.906 218.355 264.122 225.402 271.778 232.548C279.67 240.01 291.509 246.505 304.907 250.848C318.285 255.211 331.623 256.869 342.396 255.527C352.795 254.263 359.543 250.414 361.378 244.729C363.213 239.043 360.036 231.956 352.38 224.81C344.389 217.368 332.649 210.853 319.251 206.51C309.631 203.267 299.568 201.529 289.418 201.358V201.377Z" fill="#FEB2EA"/>
<path d="M334.8 259.337C324.276 259.178 313.84 257.393 303.861 254.046C290.049 249.545 277.816 242.794 269.489 235.016C260.827 226.922 257.295 218.611 259.623 211.603C261.952 204.595 269.627 199.956 281.328 198.495C292.634 197.113 306.485 198.831 320.317 203.312C334.148 207.793 346.362 214.584 354.708 222.362C363.37 230.436 366.883 238.747 364.574 245.755C362.266 252.763 354.57 257.422 342.87 258.863C340.192 259.185 337.497 259.344 334.8 259.337V259.337ZM289.418 201.377C286.859 201.374 284.302 201.526 281.762 201.831C271.364 203.115 264.615 206.944 262.761 212.649C260.906 218.355 264.122 225.402 271.778 232.548C279.67 240.01 291.509 246.505 304.907 250.848C318.304 255.191 331.623 256.869 342.396 255.527C352.795 254.263 359.543 250.414 361.378 244.729C363.213 239.043 360.036 231.956 352.38 224.81C344.389 217.368 332.649 210.853 319.251 206.51C309.631 203.267 299.568 201.529 289.418 201.358V201.377Z" fill="#FEB2EA"/>
<path d="M327.362 228.837C323.276 228.83 319.193 228.612 315.129 228.185V228.185C284.329 224.948 261.421 210.754 262.979 195.869C264.538 180.985 289.893 171.884 320.713 175.122C351.533 178.359 374.422 192.553 372.843 207.438C371.501 220.289 352.382 228.837 327.362 228.837ZM315.524 224.889C343.483 227.83 368.226 219.697 369.548 207.122C370.87 194.547 348.357 181.458 320.397 178.517C292.438 175.576 267.656 183.59 266.373 196.225C265.091 208.859 287.525 221.908 315.484 224.849L315.524 224.889Z" fill="#FEB2EA"/>
<path d="M327.362 228.837C323.276 228.83 319.193 228.612 315.129 228.185C284.329 224.948 261.421 210.754 262.979 195.869C264.538 180.985 289.893 171.884 320.713 175.122C351.533 178.359 374.422 192.553 372.843 207.438C371.501 220.289 352.382 228.837 327.362 228.837ZM308.973 177.866C285.986 177.866 267.537 185.407 266.334 196.225C265.012 208.8 287.525 221.888 315.484 224.849C343.443 227.81 368.186 219.657 369.508 207.082C370.83 194.507 348.317 181.419 320.358 178.478C316.576 178.072 312.776 177.867 308.973 177.866V177.866Z" fill="#FEB2EA"/>
<path d="M308.735 201.181C299.544 201.347 290.387 200.014 281.625 197.233C270.417 193.285 263.866 187.204 263.057 179.881C261.499 165.016 284.407 150.822 315.207 147.584C329.67 146.064 343.561 147.268 354.354 150.98C365.561 154.928 372.112 161.008 372.921 168.332C373.73 175.656 368.521 183.059 358.359 189.159C348.494 195.081 335.234 199.029 320.771 200.628C316.772 201.025 312.754 201.209 308.735 201.181ZM327.263 150.19C323.348 150.198 319.436 150.409 315.543 150.822C287.583 153.763 265.07 166.871 266.392 179.426C267.023 185.349 272.824 190.541 282.71 193.956C293.049 197.509 306.387 198.674 320.416 197.193C334.445 195.713 347.271 191.824 356.623 186.178C365.601 180.789 370.198 174.531 369.587 168.589C368.975 162.647 363.154 157.475 353.19 153.98C344.81 151.319 336.054 150.039 327.263 150.19Z" fill="#FEB2EA"/>
<path d="M308.735 201.181C299.544 201.347 290.387 200.014 281.625 197.233C270.417 193.285 263.866 187.204 263.057 179.881C261.499 165.016 284.407 150.822 315.207 147.584C329.67 146.064 343.561 147.268 354.354 150.98C365.561 154.928 372.112 161.008 372.921 168.332C373.73 175.656 368.521 183.059 358.359 189.159C348.494 195.081 335.234 199.029 320.771 200.628C316.772 201.025 312.754 201.209 308.735 201.181ZM315.385 149.164L315.543 150.822C287.583 153.763 265.07 166.871 266.392 179.426C267.023 185.349 272.824 190.541 282.71 193.956C293.049 197.509 306.387 198.674 320.416 197.193C334.445 195.713 347.271 191.824 356.623 186.178C365.601 180.789 370.198 174.531 369.587 168.589C368.975 162.647 363.154 157.475 353.19 153.98C342.87 150.427 329.512 149.282 315.483 150.743L315.385 149.164Z" fill="#FEB2EA"/>
<path d="M289.498 177.67C274.127 177.67 262.663 172.912 259.783 164.048C255.165 149.835 274.621 131.18 304.079 121.605C333.538 112.031 360.215 115.683 364.832 129.897C369.449 144.11 349.994 162.765 320.555 172.34L320.022 170.741L320.555 172.34C310.539 175.706 300.063 177.504 289.498 177.67V177.67ZM334.979 119.75C324.82 119.888 314.744 121.593 305.105 124.803C278.369 133.489 259.072 151 262.979 163.002C266.886 175.005 292.773 177.847 319.509 169.142C346.245 160.456 365.542 142.945 361.655 130.943C359.287 123.619 348.81 119.73 334.979 119.73V119.75Z" fill="#FEB2EA"/>
<path d="M289.498 177.67C274.127 177.67 262.663 172.912 259.783 164.048C255.165 149.835 274.621 131.18 304.079 121.605C333.538 112.031 360.215 115.683 364.832 129.897C369.449 144.11 349.994 162.765 320.555 172.34C310.539 175.706 300.063 177.504 289.498 177.67V177.67ZM305.105 124.803C278.369 133.489 259.072 151 262.979 163.002C266.886 175.005 292.773 177.847 319.509 169.142C346.245 160.436 365.542 142.945 361.655 130.943C357.768 118.94 331.841 116.098 305.105 124.803V124.803Z" fill="#FEB2EA"/>
<path d="M272.942 157.929C263.728 157.929 256.605 155.126 253.211 149.401C249.541 143.024 251.238 134.161 258.045 124.448C264.596 115.091 275.132 105.951 287.642 98.6663C314.477 83.1696 341.331 81.1955 348.809 94.1456C352.479 100.522 350.782 109.386 343.975 119.098C337.444 128.436 326.907 137.596 314.378 144.761C299.52 153.388 284.564 157.929 272.942 157.929ZM329.512 88.9537C318.443 88.9537 303.703 93.277 289.497 101.469C277.323 108.517 267.161 117.262 260.906 126.264C254.888 134.852 253.231 142.432 256.23 147.624C262.544 158.56 288.451 155.935 312.799 141.86C324.974 134.832 335.135 126.067 341.41 117.065C347.329 108.478 349.065 100.897 346.086 95.7248C343.422 91.1647 337.404 88.9537 329.512 88.9537Z" fill="#FEB2EA"/>
<path d="M272.942 157.929C263.728 157.929 256.605 155.126 253.211 149.401C249.541 143.024 251.238 134.161 258.045 124.448C264.596 115.091 275.132 105.951 287.642 98.6663C314.477 83.1696 341.331 81.1955 348.809 94.1456C352.479 100.522 350.782 109.386 343.975 119.098C337.444 128.436 326.907 137.596 314.378 144.761C299.52 153.388 284.564 157.929 272.942 157.929ZM289.477 101.568C277.303 108.616 267.141 117.361 260.886 126.363C254.868 134.95 253.211 142.531 256.21 147.723C262.524 158.659 288.431 156.034 312.78 141.958C324.954 134.93 335.115 126.165 341.39 117.164C347.309 108.576 349.046 100.996 346.066 95.8236C339.733 84.8673 313.825 87.5126 289.477 101.568V101.568Z" fill="#FEB2EA"/>
<path d="M257.334 141.366C254.858 141.521 252.378 141.143 250.06 140.257C247.742 139.372 245.641 138 243.897 136.233C238.965 130.765 238.807 121.743 243.444 110.827C247.883 100.325 256.289 89.1116 267.121 79.4385C277.954 69.7654 289.871 62.5008 300.783 59.2237C312.108 55.7691 321.066 56.8746 325.979 62.3428C330.893 67.8111 331.07 76.8525 326.453 87.7495C321.994 98.2517 313.588 109.465 302.775 119.138C286.951 133.331 269.765 141.366 257.334 141.366ZM312.582 60.5267C308.873 60.6049 305.197 61.2302 301.67 62.3823C291.233 65.5803 279.729 72.5292 269.272 81.9456C258.814 91.3621 250.705 102.081 246.443 112.13C242.358 121.783 242.299 129.541 246.305 133.983C254.769 143.38 279.552 135.404 300.447 116.591C310.905 107.175 319.014 96.4355 323.276 86.3874C327.38 76.734 327.42 68.9758 323.414 64.5341C322.008 63.1414 320.323 62.0638 318.469 61.3729C316.614 60.6819 314.635 60.3935 312.661 60.5267H312.582Z" fill="#FEB2EA"/>
<path d="M257.334 141.366C254.858 141.521 252.378 141.143 250.06 140.257C247.742 139.372 245.641 138 243.897 136.233C238.965 130.765 238.807 121.743 243.444 110.827C247.883 100.325 256.289 89.1116 267.121 79.4385C277.954 69.7654 289.871 62.5008 300.783 59.2237C312.108 55.7691 321.066 56.8746 325.979 62.3428C330.893 67.8111 331.07 76.8525 326.453 87.7495C321.994 98.2517 313.588 109.465 302.775 119.138C286.951 133.331 269.765 141.366 257.334 141.366ZM312.582 60.5267C308.873 60.6049 305.197 61.2302 301.67 62.3823C291.233 65.5803 279.729 72.5292 269.272 81.9456C258.814 91.3423 250.705 102.081 246.443 112.13C242.358 121.783 242.299 129.541 246.305 133.983C254.769 143.38 279.552 135.404 300.447 116.591C310.905 107.175 319.014 96.4355 323.276 86.3874C327.38 76.734 327.42 68.9758 323.414 64.5341C322.008 63.1414 320.323 62.0638 318.469 61.3729C316.614 60.6819 314.635 60.3935 312.661 60.5267H312.582Z" fill="#FEB2EA"/>
<path d="M241.136 128.178C237.872 128.269 234.667 127.299 232 125.415C226.081 121.091 224.108 112.287 226.258 100.659C228.429 89.4663 234.348 76.8124 242.892 65.027C261.084 39.9757 284.821 27.2032 296.916 36.0077C309.011 44.8122 304.217 71.3244 286.025 96.3954C277.481 108.24 267.28 117.696 257.296 123.223C252.406 126.197 246.851 127.9 241.136 128.178V128.178ZM287.84 36.6197C276.297 36.6197 258.973 48.6025 245.595 67.0011C237.328 78.3916 231.645 90.5718 229.554 101.291C227.58 111.576 229.12 119.177 233.973 122.71C238.827 126.244 246.503 125.355 255.678 120.282C265.228 114.991 275.034 105.792 283.302 94.4213C299.836 71.66 305.164 46.1546 294.943 38.7122C292.86 37.2728 290.37 36.5394 287.84 36.6197V36.6197Z" fill="#FEB2EA"/>
<path d="M241.136 128.178C237.872 128.269 234.667 127.299 232 125.415C226.081 121.091 224.108 112.287 226.258 100.659C228.429 89.4663 234.348 76.8124 242.892 65.027C261.084 39.9757 284.821 27.2032 296.916 36.0077C309.011 44.8122 304.217 71.3244 286.025 96.3954C277.481 108.24 267.28 117.696 257.296 123.223C252.406 126.197 246.851 127.9 241.136 128.178V128.178ZM245.595 66.9813C237.328 78.3719 231.645 90.5521 229.554 101.271C227.58 111.557 229.12 119.157 233.973 122.69C238.827 126.224 246.503 125.336 255.678 120.262C265.228 114.972 275.034 105.772 283.302 94.4016C299.836 71.6402 305.164 46.1348 294.943 38.6925C284.722 31.2501 262.13 44.22 245.615 66.9813H245.595Z" fill="#FEB2EA"/>
<path d="M223.93 118.446C221.891 118.473 219.871 118.055 218.01 117.222C211.282 114.241 207.474 106.048 207.257 94.2039C207.059 82.7936 210.216 69.192 216.136 55.9063C222.055 42.6206 230.125 31.2498 238.748 23.689C247.686 15.9111 256.309 13.2658 263.037 16.2664C269.765 19.267 273.593 27.4398 273.791 39.3042C273.988 50.6947 270.851 64.2963 264.931 77.6017C254 102.179 237.13 118.446 223.93 118.446ZM257.177 18.4971C252.441 18.4971 246.838 21.1622 240.918 26.3935C232.69 33.5595 224.995 44.5947 219.214 57.4461C213.433 70.2975 210.453 83.3858 210.631 94.3223C210.828 104.805 213.926 111.912 219.392 114.34C230.934 119.472 250.35 102.1 261.794 76.4172C267.516 63.5461 270.555 50.4578 270.357 39.5213C270.18 29.0586 267.062 21.9518 261.597 19.5039C260.21 18.8636 258.704 18.5207 257.177 18.4971V18.4971Z" fill="#FEB2EA"/>
<path d="M223.93 118.446C221.891 118.473 219.871 118.055 218.01 117.222C211.282 114.241 207.474 106.048 207.257 94.2039C207.059 82.7936 210.216 69.192 216.136 55.9063C222.055 42.6009 229.948 31.1709 238.649 23.689C247.587 15.9111 256.21 13.2658 262.938 16.2664C269.667 19.267 273.495 27.4398 273.692 39.3042C273.889 50.6947 270.752 64.2963 264.833 77.6017C254 102.179 237.13 118.446 223.93 118.446ZM257.177 18.4971C252.441 18.4971 246.838 21.1622 240.918 26.3935C232.69 33.5595 224.995 44.5947 219.214 57.4461C213.492 70.2975 210.453 83.3858 210.631 94.3223C210.828 104.805 213.926 111.912 219.392 114.34C220.785 114.95 222.291 115.259 223.811 115.248C235.433 115.248 251.711 99.0602 261.794 76.4172C267.516 63.5461 270.555 50.4578 270.357 39.5213C270.18 29.0586 267.062 21.9518 261.597 19.5039C260.21 18.8636 258.704 18.5207 257.177 18.4971V18.4971Z" fill="#FEB2EA"/>
<path d="M205.679 112.524C204.718 112.524 203.759 112.425 202.818 112.227C188.197 109.168 181.784 82.9121 188.217 52.6689C194.649 22.4257 211.125 1.0462 225.785 4.16528C232.987 5.70507 238.413 12.9105 241.077 24.459C243.642 35.5732 243.405 49.5301 240.366 63.7633C237.328 77.9966 231.902 90.8085 225.035 99.9683C218.84 108.2 212.072 112.524 205.679 112.524ZM222.964 7.22513C211.125 7.22513 197.017 27.4202 191.512 53.3796C185.592 80.8985 191.157 106.364 203.508 108.99C209.428 110.234 216.058 106.305 222.372 97.935C228.942 89.2095 234.21 76.8319 237.091 63.0724C240.011 49.2537 240.268 35.8496 237.821 25.2092C235.453 15.0031 230.935 8.68596 225.094 7.44228C224.393 7.30163 223.679 7.22891 222.964 7.22513V7.22513Z" fill="#FEB2EA"/>
<path d="M205.679 112.524C204.718 112.525 203.759 112.425 202.818 112.228C188.197 109.168 181.784 82.9128 188.217 52.6696C194.669 22.3672 211.125 1.0469 225.785 4.16598C232.987 5.70578 238.413 12.9112 241.077 24.4597C243.642 35.5739 243.405 49.5308 240.366 63.764C237.328 77.9973 231.902 90.8092 225.035 99.969C218.84 108.201 212.072 112.524 205.679 112.524ZM191.512 53.3013C185.592 80.8203 191.157 106.286 203.508 108.912C209.428 110.155 216.058 106.227 222.372 97.8568C228.942 89.1312 234.21 76.7536 237.091 62.9942C239.972 49.2347 240.268 35.7713 237.821 25.1309C235.453 14.9248 230.935 8.6077 225.094 7.36402C212.743 4.81743 197.313 25.8613 191.512 53.3013Z" fill="#FEB2EA"/>
</g>
<defs>
<clipPath id="clip0_320_2">
<rect width="373" height="375" fill="white"/>
</clipPath>
</defs>
</svg>
