<svg width="1047" height="196" viewBox="0 0 1047 196" fill="none" xmlns="http://www.w3.org/2000/svg">
<path d="M345.321 25.6254C335.514 55.6414 311.426 120.043 309.05 125.987C306.671 118.557 289.11 59.8014 278.71 25.9228H240.669C252.555 64.8534 266.549 111.424 266.549 111.424C278.734 152.14 285.57 174.727 307.265 175.619H308.454C329.555 175.619 338.469 152.436 349.766 123.015C362.545 90.3228 372.959 60.3974 384.254 25.9228L345.321 25.6254Z" fill="black"/>
<path d="M412.698 99.5199C412.698 83.7693 415.678 71.6039 421.636 63.0213C427.592 54.4386 435.014 50.1479 443.897 50.1479C448.34 50.1479 451.924 51.4613 454.649 54.0853C457.376 56.7119 458.741 60.6479 458.741 65.8986C458.741 75.1866 454.549 83.0119 446.17 89.3733C437.79 95.7346 426.632 100.025 412.698 102.245V99.5199ZM551.95 48.3026V26.3186H515.31V102.612L513.26 105.275C511.445 107.9 508.564 111.08 504.628 114.817C500.692 118.551 496.249 122.288 491.3 126.023C486.353 129.76 480.297 132.939 473.126 135.565C465.957 138.189 458.638 139.501 451.169 139.501C436.425 139.501 426.028 135.565 419.97 127.689C429.458 126.073 438.245 123.701 446.322 120.571C454.4 117.441 461.921 113.403 468.886 108.455C475.853 103.508 481.357 97.2986 485.393 89.8279C489.433 82.3559 491.452 73.9759 491.452 64.6866C491.452 51.9653 487.413 41.6173 479.336 33.6413C471.258 25.6639 459.75 21.6773 444.808 21.6773C424.006 21.6773 407.197 29.0973 394.373 43.9386C381.553 58.7799 375.141 77.3079 375.141 99.5199C375.141 121.933 381.4 140.007 393.918 153.739C406.442 167.469 423.806 174.335 446.017 174.335C453.894 174.335 461.766 173.275 469.644 171.155C477.52 169.033 484.032 166.712 489.178 164.187C494.33 161.664 499.226 158.736 503.87 155.404C508.514 152.072 511.545 149.749 512.957 148.437C513.89 147.572 514.641 146.856 515.31 146.211V170.06H551.95V101.571C551.95 77.3319 568.297 61.8306 597.609 61.8306V24.0639C578.725 24.0639 563.224 33.0826 551.95 48.3026Z" fill="black"/>
<path d="M747.857 122.427V78.7408C747.857 44.9221 725.589 22.9355 691.769 22.9355C672.885 22.9355 657.101 30.2635 646.109 44.0755V26.3181H609.47V170.061H646.109V91.1435C646.109 71.4141 659.638 58.4501 679.93 58.4501C698.814 58.4501 711.216 71.1328 711.216 90.5781V130.321C711.216 156.531 725.309 170.061 752.648 170.061H763.076V134.547H759.976C752.365 134.547 747.857 130.038 747.857 122.427Z" fill="black"/>
<path d="M1026.14 95.962L1024.76 95.2367C1013.37 88.4593 1001.45 86.834 990.876 85.478C982.745 84.394 975.697 83.5807 970.005 80.5993C965.125 77.8887 962.416 74.3647 962.416 70.57C962.416 66.5033 964.855 61.626 969.735 58.914C977.324 54.5767 986.539 54.0353 993.044 56.2047C998.467 57.83 1002.26 62.71 1001.99 65.962L1034.79 67.046C1034.52 47.53 1022.59 30.9967 1002.8 24.762C987.353 19.882 969.463 22.3233 953.741 31.2673C938.292 40.2113 929.076 55.1207 929.347 71.3833C929.617 87.3767 938.833 102.013 954.283 110.415C965.125 116.379 976.511 118.005 986.539 119.359C994.943 120.445 1002.26 121.529 1007.95 124.781C1011.75 127.221 1015.27 132.642 1013.37 136.707C1010.93 142.129 1003.07 146.195 994.943 146.737C981.119 147.55 963.772 140.502 960.789 125.595L928.261 132.101C933.955 160.018 960.789 180.077 990.335 180.077C993.587 180.077 996.84 179.806 1000.09 179.263C1017.44 176.823 1039.67 166.523 1045.36 145.382C1050.24 126.95 1042.68 105.719 1026.14 95.962Z" fill="black"/>
<path d="M842.251 128.705C818.586 128.705 799.402 115.297 799.402 98.7567C799.402 82.2167 818.586 68.8087 842.251 68.8087C865.915 68.8087 885.099 82.2167 885.099 98.7567C885.099 115.297 865.915 128.705 842.251 128.705ZM842.251 23.5047C798.283 23.5047 765.024 55.9167 765.024 98.758C765.024 141.598 798.283 174.01 842.251 174.01C886.219 174.01 919.476 141.598 919.476 98.758C919.476 55.9167 886.219 23.5047 842.251 23.5047Z" fill="black"/>
<path d="M204.768 97.6846C204.768 107.546 181.801 113.655 178.912 122.553C175.919 131.775 190.801 150.198 185.215 157.875C179.573 165.627 157.416 157.133 149.663 162.775C141.987 168.362 143.251 192.087 134.028 195.082C125.131 197.97 112.245 178.127 102.384 178.127C92.5227 178.127 79.6373 197.97 70.74 195.081C61.5173 192.087 62.7813 168.362 55.1053 162.775C47.352 157.133 25.1947 165.627 19.5533 157.874C13.9667 150.198 28.8507 131.775 25.856 122.553C22.9667 113.655 0 107.546 0 97.6846C0 87.8233 22.9667 81.7139 25.856 72.8166C28.8507 63.5939 13.9667 45.1713 19.5533 37.4939C25.196 29.7419 47.3533 38.2366 55.1053 32.5939C62.7827 27.0073 61.5173 3.28195 70.74 0.287277C79.6387 -2.60072 92.5227 17.2419 102.384 17.2419C112.245 17.2419 125.131 -2.60072 134.029 0.288605C143.251 3.28194 141.988 27.0073 149.663 32.5939C157.416 38.2366 179.573 29.7419 185.216 37.4953C190.803 45.1713 175.919 63.5939 178.913 72.8166C181.801 81.7139 204.768 87.8233 204.768 97.6846Z" fill="#587EFD"/>
<path d="M102.892 133.46C94.3322 133.46 86.2989 129.029 81.7535 121.56C81.3722 120.932 81.5709 120.111 82.2002 119.728C82.8295 119.347 83.6495 119.547 84.0309 120.175C88.6562 127.777 97.3362 131.853 106.14 130.555C112.07 129.683 117.275 126.529 120.798 121.677C121.23 121.081 122.064 120.949 122.659 121.381C123.255 121.815 123.387 122.647 122.954 123.244C119.007 128.68 113.172 132.213 106.528 133.193C105.311 133.373 104.096 133.46 102.892 133.46Z" fill="black"/>
<path d="M80.1242 68.8375C68.9268 68.8375 60.4548 77.5308 60.4548 89.0241C60.4548 100.517 68.9268 109.209 80.1242 109.209C91.3228 109.209 99.7948 100.517 99.7948 89.0241C99.7948 77.5308 91.3228 68.8375 80.1242 68.8375Z" fill="white"/>
<path d="M80.0256 89.0239C80.0256 82.8385 76.5203 77.8239 72.1976 77.8239C67.8736 77.8239 64.3696 82.8385 64.3696 89.0239C64.3696 95.2092 67.8736 100.224 72.1976 100.224C76.5203 100.224 80.0256 95.2092 80.0256 89.0239Z" fill="black"/>
<path d="M124.643 68.8375C113.446 68.8375 104.974 77.5308 104.974 89.0241C104.974 100.517 113.446 109.209 124.643 109.209C135.841 109.209 144.314 100.517 144.314 89.0241C144.314 77.5308 135.841 68.8375 124.643 68.8375Z" fill="white"/>
<path d="M124.545 89.0239C124.545 82.8385 121.04 77.8239 116.717 77.8239C112.393 77.8239 108.889 82.8385 108.889 89.0239C108.889 95.2092 112.393 100.224 116.717 100.224C121.04 100.224 124.545 95.2092 124.545 89.0239Z" fill="black"/>
</svg>
