<svg id="Capa_1" data-name="Capa 1" xmlns="http://www.w3.org/2000/svg" viewBox="0 0 1080 1080"><defs><style>.cls-1{fill:#587efd;}.cls-2{fill:#fff;}</style></defs><title>Vernos_icon</title><path class="cls-1" d="M942.72,540c0,38.79-90.33,62.82-101.7,97.82-11.78,36.28,46.77,108.74,24.79,138.94C843.62,807.25,756.46,773.84,726,796c-30.2,22-25.22,115.3-61.5,127.08-35,11.36-85.68-66.69-124.47-66.69s-89.47,78.05-124.47,66.69C379.25,911.33,384.22,818,354,796c-30.5-22.19-117.65,11.22-139.85-19.28-22-30.19,36.58-102.66,24.8-138.93-11.37-35-101.7-59-101.7-97.82s90.33-62.82,101.7-97.82c11.78-36.28-46.77-108.74-24.79-138.94C236.38,272.75,323.54,306.16,354,284c30.2-22,25.22-115.3,61.5-127.08,35-11.36,85.68,66.69,124.47,66.69s89.47-78.05,124.47-66.69C700.75,168.67,695.78,262,726,284c30.5,22.19,117.65-11.22,139.85,19.28,22,30.19-36.58,102.66-24.8,138.93C852.39,477.18,942.72,501.21,942.72,540Z"/><path d="M542,680.72a97.27,97.27,0,0,1-83.15-46.8,5.25,5.25,0,0,1,9-5.46,86.92,86.92,0,0,0,144.62,5.91,5.24,5.24,0,1,1,8.48,6.17A97.52,97.52,0,0,1,542,680.72Z"/><path class="cls-2" d="M452.44,426.53c-44.05,0-77.37,34.2-77.37,79.4s33.32,79.41,77.37,79.41,77.38-34.2,77.38-79.41S496.49,426.53,452.44,426.53Z"/><path d="M452.05,505.93c0-24.33-13.78-44.05-30.79-44.05s-30.79,19.72-30.79,44.05S404.25,550,421.26,550,452.05,530.26,452.05,505.93Z"/><path class="cls-2" d="M627.56,426.53c-44,0-77.38,34.2-77.38,79.4s33.33,79.41,77.38,79.41,77.37-34.2,77.37-79.41S671.6,426.53,627.56,426.53Z"/><path d="M627.17,505.93c0-24.33-13.79-44.05-30.79-44.05s-30.8,19.72-30.8,44.05S579.37,550,596.38,550,627.17,530.26,627.17,505.93Z"/></svg>