<svg width="158" height="31" viewBox="0 0 158 31" fill="none" xmlns="http://www.w3.org/2000/svg">
<path d="M20.3941 0.7694C18.483 6.61878 13.7889 19.169 13.3259 20.3274C12.8623 18.8796 9.44003 7.42947 7.41333 0.827343H0C2.31642 8.41398 5.04338 17.4895 5.04338 17.4895C7.418 25.424 8.75017 29.8256 12.9779 29.9994H13.2097C17.3218 29.9994 19.0588 25.4817 21.2604 19.7482C23.7507 13.3773 25.7802 7.54561 27.9813 0.827343L20.3941 0.7694Z" fill="black"/>
<path d="M33.5246 15.1696C33.5246 12.1002 34.1053 9.72949 35.2662 8.05694C36.4269 6.38438 37.8734 5.54824 39.6044 5.54824C40.4702 5.54824 41.1686 5.80417 41.6997 6.31553C42.2311 6.8274 42.4972 7.59443 42.4972 8.61766C42.4972 10.4277 41.6802 11.9526 40.0474 13.1923C38.4144 14.432 36.2398 15.2681 33.5246 15.7007V15.1696ZM60.6614 5.18863V0.904482H53.5211V15.7722L53.1215 16.2911C52.7679 16.8027 52.2064 17.4224 51.4394 18.1507C50.6723 18.8782 49.8066 19.6066 48.8421 20.3344C47.8781 21.0627 46.6979 21.6821 45.3005 22.194C43.9034 22.7053 42.4772 22.961 41.0216 22.961C38.1483 22.961 36.1221 22.194 34.9417 20.6591C36.7907 20.3442 38.503 19.882 40.0771 19.2719C41.6511 18.6621 43.1169 17.875 44.4742 16.9108C45.8319 15.9468 46.9045 14.7367 47.691 13.2809C48.4783 11.8248 48.8717 10.1917 48.8717 8.38147C48.8717 5.90239 48.0846 3.88582 46.5106 2.33149C44.9365 0.776903 42.6939 1.20961e-06 39.7819 1.20961e-06C35.7282 1.20961e-06 32.4525 1.44598 29.9534 4.33819C27.4551 7.2304 26.2056 10.8411 26.2056 15.1696C26.2056 19.5374 27.4252 23.0595 29.8648 25.7355C32.3054 28.4113 35.6892 29.7492 40.0176 29.7492C41.5527 29.7492 43.0867 29.5426 44.6218 29.1295C46.1567 28.7161 47.4257 28.2637 48.4287 27.7716C49.4327 27.28 50.3868 26.7094 51.2918 26.0601C52.1968 25.4107 52.7874 24.9581 53.0625 24.7024C53.2444 24.5338 53.3907 24.3943 53.5211 24.2685V28.9162H60.6614V15.5693C60.6614 10.8457 63.8469 7.8249 69.5591 7.8249V0.465102C65.8791 0.465102 62.8583 2.22262 60.6614 5.18863" fill="black"/>
<path d="M98.8388 19.6337V11.1203C98.8388 4.52985 94.4993 0.245185 87.9086 0.245185C84.2286 0.245185 81.1527 1.67323 79.0106 4.36486V0.904385H71.8706V28.9163H79.0106V13.5373C79.0106 9.6925 81.6471 7.16613 85.6015 7.16613C89.2816 7.16613 91.6983 9.63767 91.6983 13.4271V21.172C91.6983 26.2798 94.4447 28.9163 99.7724 28.9163H101.805V21.9956H101.2C99.7173 21.9956 98.8388 21.1169 98.8388 19.6337Z" fill="black"/>
<path d="M153.07 14.4763L152.8 14.3349C150.582 13.0142 148.257 12.6974 146.197 12.4332C144.613 12.2219 143.239 12.0634 142.13 11.4824C141.179 10.9542 140.651 10.2675 140.651 9.52798C140.651 8.73548 141.126 7.78501 142.077 7.25651C143.556 6.41127 145.352 6.30577 146.62 6.72852C147.676 7.04526 148.416 7.99625 148.363 8.62999L154.755 8.84124C154.702 5.03804 152.377 1.8161 148.522 0.601116C145.511 -0.349877 142.024 0.125881 138.961 1.86885C135.95 3.61181 134.154 6.51728 134.207 9.68648C134.259 12.8032 136.055 15.6554 139.066 17.2929C141.179 18.4551 143.398 18.7718 145.352 19.0358C146.99 19.2473 148.416 19.4586 149.525 20.0923C150.265 20.5678 150.951 21.6243 150.582 22.4165C150.106 23.473 148.574 24.2655 146.99 24.371C144.296 24.5295 140.915 23.156 140.334 20.2511L133.995 21.5188C135.105 26.9592 140.334 30.8681 146.092 30.8681C146.725 30.8681 147.359 30.8154 147.993 30.7097C151.374 30.2342 155.705 28.2269 156.815 24.107C157.766 20.5151 156.292 16.3777 153.07 14.4763Z" fill="black"/>
<path d="M117.234 20.857C112.622 20.857 108.883 18.2441 108.883 15.0209C108.883 11.7977 112.622 9.18476 117.234 9.18476C121.845 9.18476 125.584 11.7977 125.584 15.0209C125.584 18.2441 121.845 20.857 117.234 20.857ZM117.234 0.356118C108.665 0.356118 102.184 6.67242 102.184 15.0212C102.184 23.3696 108.665 29.6859 117.234 29.6859C125.802 29.6859 132.283 23.3696 132.283 15.0212C132.283 6.67242 125.802 0.356118 117.234 0.356118Z" fill="black"/>
</svg>
