<svg width="1117" height="993" viewBox="0 0 1117 993" fill="none" xmlns="http://www.w3.org/2000/svg">
<path d="M1116.87 496.647C1116.87 587.598 980.823 642.863 938.649 716.28C894.928 792.052 913.542 937.091 837.912 980.955C764.632 1023.39 649.611 935.975 558.83 935.975C468.05 935.975 353.214 1023.64 279.687 981.203C204.057 937.338 222.732 792.3 178.95 716.528C136.775 643.11 0.728516 587.846 0.728516 496.647C0.728516 405.448 136.775 350.741 178.95 277.261C222.732 201.49 204.057 56.7608 279.687 12.6483C353.214 -29.9772 468.05 57.6282 558.83 57.6282C649.611 57.6282 764.632 -29.9772 837.912 12.6483C913.542 56.7608 894.928 201.49 938.649 277.261C981.071 350.741 1116.87 405.944 1116.87 496.647Z" fill="#FDB1E9"/>
</svg>
