<svg width="252" height="72" viewBox="0 0 252 72" fill="none" xmlns="http://www.w3.org/2000/svg">
<path d="M28.6172 -2.96217e-07C31.7578 -2.96217e-07 33.6734 3.45355 32.0106 6.11783L21.2772 23.3156C19.7092 25.8279 16.0498 25.8245 14.4865 23.3092L3.79823 6.11143C2.14223 3.44689 4.05835 -2.96217e-07 7.19556 -2.96217e-07L28.6172 -2.96217e-07Z" fill="black"/>
<path d="M48.9035 66.5437C47.3486 69.0614 43.6929 69.0776 42.1157 66.5738L26.7844 42.2352C25.9633 40.9316 25.9638 39.2722 26.7858 37.9691L49.5596 1.86591C50.2923 0.704442 51.5695 -2.96217e-07 52.9428 -2.96217e-07L82.8283 -2.96217e-07C85.9605 -2.96217e-07 87.8774 3.43693 86.2316 6.10182L48.9035 66.5437Z" fill="black"/>
<path d="M99.38 53.6C96.58 53.6 94.14 53.04 92.06 51.92C90.02 50.76 88.44 49.18 87.32 47.18C86.24 45.18 85.7 42.92 85.7 40.4C85.7 37.96 86.3 35.74 87.5 33.74C88.74 31.7 90.4 30.1 92.48 28.94C94.6 27.74 96.94 27.14 99.5 27.14C102.78 27.14 105.5 28.1 107.66 30.02C109.82 31.94 111.3 34.58 112.1 37.94L92.42 44.84C93.1 46.08 94.06 47.06 95.3 47.78C96.54 48.46 97.94 48.8 99.5 48.8C100.62 48.8 101.68 48.6 102.68 48.2C103.68 47.8 104.64 47.28 105.56 46.64L108.14 50.78C106.86 51.62 105.44 52.3 103.88 52.82C102.36 53.34 100.86 53.6 99.38 53.6ZM91.22 40.1C91.18 40.58 91.2 41.04 91.28 41.48L105.74 36.14C105.18 34.94 104.36 33.88 103.28 32.96C102.24 32.04 100.84 31.58 99.08 31.58C96.8 31.58 94.92 32.38 93.44 33.98C91.96 35.58 91.22 37.62 91.22 40.1ZM130.012 28.16L130.432 33.98C131.112 32.58 132.052 31.38 133.252 30.38C134.452 29.34 135.692 28.56 136.972 28.04C138.292 27.48 139.432 27.18 140.392 27.14L140.152 32.72C138.272 32.64 136.612 33.02 135.172 33.86C133.732 34.66 132.612 35.76 131.812 37.16C131.012 38.56 130.612 40.06 130.612 41.66V53H125.032V28.16H130.012ZM158.63 28.16L158.99 32.96C159.83 31.2 161.13 29.8 162.89 28.76C164.65 27.72 166.69 27.2 169.01 27.2C171.33 27.2 173.23 27.9 174.71 29.3C176.23 30.66 177.03 32.44 177.11 34.64V53H171.47V36.56C171.39 35.24 170.97 34.16 170.21 33.32C169.49 32.48 168.35 32.04 166.79 32C164.63 32 162.81 32.88 161.33 34.64C159.89 36.36 159.17 38.6 159.17 41.36V53H153.59V28.16H158.63ZM190.595 40.34C190.595 37.86 191.175 35.62 192.335 33.62C193.535 31.62 195.175 30.04 197.255 28.88C199.335 27.72 201.715 27.14 204.395 27.14C207.075 27.14 209.435 27.72 211.475 28.88C213.515 30.04 215.095 31.62 216.215 33.62C217.375 35.62 217.955 37.86 217.955 40.34C217.955 42.82 217.375 45.06 216.215 47.06C215.095 49.06 213.495 50.66 211.415 51.86C209.375 53.02 206.995 53.6 204.275 53.6C201.635 53.6 199.275 53.06 197.195 51.98C195.155 50.9 193.535 49.36 192.335 47.36C191.175 45.36 190.595 43.02 190.595 40.34ZM196.235 40.4C196.235 42 196.575 43.46 197.255 44.78C197.975 46.06 198.935 47.08 200.135 47.84C201.335 48.6 202.695 48.98 204.215 48.98C205.775 48.98 207.155 48.6 208.355 47.84C209.555 47.08 210.495 46.06 211.175 44.78C211.895 43.46 212.255 42 212.255 40.4C212.255 38.8 211.895 37.36 211.175 36.08C210.495 34.76 209.555 33.72 208.355 32.96C207.155 32.16 205.775 31.76 204.215 31.76C202.695 31.76 201.315 32.16 200.075 32.96C198.875 33.76 197.935 34.82 197.255 36.14C196.575 37.42 196.235 38.84 196.235 40.4ZM238.47 53.48C236.67 53.48 234.93 53.18 233.25 52.58C231.61 51.94 230.25 51 229.17 49.76L231.57 46.52C232.57 47.52 233.63 48.28 234.75 48.8C235.87 49.28 236.95 49.52 237.99 49.52C239.19 49.52 240.23 49.28 241.11 48.8C242.03 48.32 242.49 47.5 242.49 46.34C242.49 45.46 242.19 44.76 241.59 44.24C241.03 43.72 240.29 43.32 239.37 43.04C238.49 42.72 237.57 42.4 236.61 42.08C232.37 40.72 230.25 38.3 230.25 34.82C230.25 33.54 230.57 32.32 231.21 31.16C231.89 30 232.87 29.06 234.15 28.34C235.47 27.62 237.09 27.26 239.01 27.26C240.73 27.26 242.27 27.48 243.63 27.92C244.99 28.36 246.27 29.06 247.47 30.02L245.25 33.44C244.53 32.72 243.67 32.18 242.67 31.82C241.71 31.42 240.83 31.2 240.03 31.16C238.95 31.16 237.99 31.42 237.15 31.94C236.35 32.46 235.95 33.18 235.95 34.1C235.91 34.94 236.17 35.62 236.73 36.14C237.29 36.62 238.01 37.02 238.89 37.34C239.81 37.66 240.73 37.96 241.65 38.24C243.45 38.84 244.97 39.66 246.21 40.7C247.49 41.74 248.13 43.26 248.13 45.26C248.13 47.5 247.33 49.44 245.73 51.08C244.13 52.68 241.71 53.48 238.47 53.48Z" fill="black"/>
</svg>
