<svg width="254" height="72" viewBox="0 0 254 72" fill="none" xmlns="http://www.w3.org/2000/svg">
<path d="M28.391 0.999998C31.5785 0.999998 33.4855 4.54603 31.7282 7.20529L21.2209 23.1055C19.6378 25.5012 16.1209 25.4978 14.5423 23.099L4.07917 7.19884C2.32893 4.53911 4.23665 0.999998 7.4206 0.999998L28.391 0.999998Z" fill="black"/>
<path d="M48.8485 63.9309C47.2783 66.3322 43.7651 66.3482 42.173 63.9612L26.9219 41.0949C26.025 39.7502 26.0256 37.9979 26.9234 36.6538L49.5489 2.77835C50.291 1.6672 51.539 0.999998 52.8752 0.999998L82.605 0.999998C85.7838 0.999998 87.6925 4.52875 85.9528 7.18916L48.8485 63.9309Z" fill="black"/>
<path d="M100.656 54.72C97.296 54.72 94.368 54.048 91.872 52.704C89.424 51.312 87.528 49.416 86.184 47.016C84.888 44.616 84.24 41.904 84.24 38.88C84.24 35.952 84.96 33.288 86.4 30.888C87.888 28.44 89.88 26.52 92.376 25.128C94.92 23.688 97.728 22.968 100.8 22.968C104.736 22.968 108 24.12 110.592 26.424C113.184 28.728 114.96 31.896 115.92 35.928L92.304 44.208C93.12 45.696 94.272 46.872 95.76 47.736C97.248 48.552 98.928 48.96 100.8 48.96C102.144 48.96 103.416 48.72 104.616 48.24C105.816 47.76 106.968 47.136 108.072 46.368L111.168 51.336C109.632 52.344 107.928 53.16 106.056 53.784C104.232 54.408 102.432 54.72 100.656 54.72ZM90.864 38.52C90.816 39.096 90.84 39.648 90.936 40.176L108.288 33.768C107.616 32.328 106.632 31.056 105.336 29.952C104.088 28.848 102.408 28.296 100.296 28.296C97.56 28.296 95.304 29.256 93.528 31.176C91.752 33.096 90.864 35.544 90.864 38.52ZM130.214 24.192L130.718 31.176C131.534 29.496 132.662 28.056 134.102 26.856C135.542 25.608 137.03 24.672 138.566 24.048C140.15 23.376 141.518 23.016 142.67 22.968L142.382 29.664C140.126 29.568 138.134 30.024 136.406 31.032C134.678 31.992 133.334 33.312 132.374 34.992C131.414 36.672 130.934 38.472 130.934 40.392V54H124.238V24.192H130.214ZM157.357 24.192L157.789 29.952C158.797 27.84 160.357 26.16 162.469 24.912C164.581 23.664 167.029 23.04 169.813 23.04C172.597 23.04 174.877 23.88 176.653 25.56C178.477 27.192 179.437 29.328 179.533 31.968V54H172.765V34.272C172.669 32.688 172.165 31.392 171.253 30.384C170.389 29.376 169.021 28.848 167.149 28.8C164.557 28.8 162.373 29.856 160.597 31.968C158.869 34.032 158.005 36.72 158.005 40.032V54H151.309V24.192H157.357ZM188.513 38.808C188.513 35.832 189.209 33.144 190.601 30.744C192.041 28.344 194.009 26.448 196.505 25.056C199.001 23.664 201.857 22.968 205.073 22.968C208.289 22.968 211.121 23.664 213.569 25.056C216.017 26.448 217.913 28.344 219.257 30.744C220.649 33.144 221.345 35.832 221.345 38.808C221.345 41.784 220.649 44.472 219.257 46.872C217.913 49.272 215.993 51.192 213.497 52.632C211.049 54.024 208.193 54.72 204.929 54.72C201.761 54.72 198.929 54.072 196.433 52.776C193.985 51.48 192.041 49.632 190.601 47.232C189.209 44.832 188.513 42.024 188.513 38.808ZM195.281 38.88C195.281 40.8 195.689 42.552 196.505 44.136C197.369 45.672 198.521 46.896 199.961 47.808C201.401 48.72 203.033 49.176 204.857 49.176C206.729 49.176 208.385 48.72 209.825 47.808C211.265 46.896 212.393 45.672 213.209 44.136C214.073 42.552 214.505 40.8 214.505 38.88C214.505 36.96 214.073 35.232 213.209 33.696C212.393 32.112 211.265 30.864 209.825 29.952C208.385 28.992 206.729 28.512 204.857 28.512C203.033 28.512 201.377 28.992 199.889 29.952C198.449 30.912 197.321 32.184 196.505 33.768C195.689 35.304 195.281 37.008 195.281 38.88ZM238.764 54.576C236.604 54.576 234.516 54.216 232.5 53.496C230.532 52.728 228.9 51.6 227.604 50.112L230.484 46.224C231.684 47.424 232.956 48.336 234.3 48.96C235.644 49.536 236.94 49.824 238.188 49.824C239.628 49.824 240.876 49.536 241.932 48.96C243.036 48.384 243.588 47.4 243.588 46.008C243.588 44.952 243.228 44.112 242.508 43.488C241.836 42.864 240.948 42.384 239.844 42.048C238.788 41.664 237.684 41.28 236.532 40.896C231.444 39.264 228.9 36.36 228.9 32.184C228.9 30.648 229.284 29.184 230.052 27.792C230.868 26.4 232.044 25.272 233.58 24.408C235.164 23.544 237.108 23.112 239.412 23.112C241.476 23.112 243.324 23.376 244.956 23.904C246.588 24.432 248.124 25.272 249.564 26.424L246.9 30.528C246.036 29.664 245.004 29.016 243.804 28.584C242.652 28.104 241.596 27.84 240.636 27.792C239.34 27.792 238.188 28.104 237.18 28.728C236.22 29.352 235.74 30.216 235.74 31.32C235.692 32.328 236.004 33.144 236.676 33.768C237.348 34.344 238.212 34.824 239.268 35.208C240.372 35.592 241.476 35.952 242.58 36.288C244.74 37.008 246.564 37.992 248.052 39.24C249.588 40.488 250.356 42.312 250.356 44.712C250.356 47.4 249.396 49.728 247.476 51.696C245.556 53.616 242.652 54.576 238.764 54.576Z" fill="black"/>
</svg>
