<svg width="244" height="72" viewBox="0 0 244 72" fill="none" xmlns="http://www.w3.org/2000/svg">
<path d="M28.6172 0C31.7578 0 33.6734 3.45355 32.0106 6.11784L21.2772 23.3156C19.7092 25.8279 16.0498 25.8245 14.4865 23.3092L3.79823 6.11143C2.14223 3.44689 4.05835 0 7.19556 0L28.6172 0Z" fill="white"/>
<path d="M48.9035 66.5437C47.3486 69.0614 43.6929 69.0776 42.1157 66.5738L26.7844 42.2352C25.9633 40.9316 25.9638 39.2722 26.7858 37.9691L49.5596 1.86591C50.2923 0.704445 51.5695 0 52.9428 0L82.8283 0C85.9605 0 87.8774 3.43693 86.2316 6.10182L48.9035 66.5437Z" fill="white"/>
<path d="M98.624 57.616C95.824 57.616 93.4347 57.0747 91.456 55.992C89.4773 54.9093 87.9653 53.416 86.92 51.512C85.8747 49.5707 85.352 47.3867 85.352 44.96C85.352 42.608 85.9493 40.48 87.144 38.576C88.3387 36.6347 89.944 35.104 91.96 33.984C93.976 32.8267 96.2347 32.248 98.736 32.248C101.984 32.248 104.653 33.2 106.744 35.104C108.872 36.9707 110.291 39.6213 111 43.056L92.8 49.216C94.144 51.232 96.1227 52.24 98.736 52.24C99.7067 52.24 100.621 52.072 101.48 51.736C102.376 51.4 103.235 50.952 104.056 50.392L106.912 55.04C105.643 55.824 104.28 56.4587 102.824 56.944C101.368 57.392 99.968 57.616 98.624 57.616ZM91.512 44.624C91.512 44.9227 91.5307 45.24 91.568 45.576L104 41.152C103.552 40.1067 102.88 39.192 101.984 38.408C101.088 37.5867 99.8373 37.176 98.232 37.176C96.2533 37.176 94.6293 37.8667 93.36 39.248C92.128 40.6293 91.512 42.4213 91.512 44.624ZM128.427 33.312L128.875 38.8C129.547 37.456 130.462 36.2987 131.619 35.328C132.777 34.32 133.953 33.5547 135.147 33.032C136.379 32.5093 137.387 32.248 138.171 32.248L137.891 38.52C136.099 38.3707 134.531 38.688 133.187 39.472C131.881 40.256 130.854 41.32 130.107 42.664C129.398 43.9707 129.043 45.352 129.043 46.808V57H122.771V33.312H128.427ZM155.848 33.312L156.296 37.568C157.117 35.9627 158.33 34.6933 159.936 33.76C161.541 32.7893 163.445 32.304 165.648 32.304C167.85 32.304 169.68 32.976 171.136 34.32C172.629 35.6267 173.394 37.3253 173.432 39.416V57H167.16V41.656C167.085 40.4613 166.73 39.5093 166.096 38.8C165.498 38.0533 164.509 37.6613 163.128 37.624C161.186 37.624 159.581 38.464 158.312 40.144C157.08 41.7867 156.464 43.896 156.464 46.472V57H150.192V33.312H155.848ZM185.715 44.904C185.715 42.5147 186.275 40.368 187.395 38.464C188.552 36.56 190.12 35.048 192.099 33.928C194.115 32.808 196.429 32.248 199.043 32.248C201.693 32.248 203.989 32.808 205.931 33.928C207.909 35.048 209.44 36.56 210.523 38.464C211.605 40.368 212.147 42.5147 212.147 44.904C212.147 47.2933 211.605 49.4587 210.523 51.4C209.44 53.304 207.909 54.816 205.931 55.936C203.952 57.056 201.637 57.616 198.987 57.616C196.411 57.616 194.115 57.112 192.099 56.104C190.12 55.0587 188.552 53.584 187.395 51.68C186.275 49.776 185.715 47.5173 185.715 44.904ZM192.043 44.96C192.043 46.3787 192.341 47.6667 192.939 48.824C193.536 49.944 194.339 50.84 195.347 51.512C196.392 52.1467 197.568 52.464 198.875 52.464C200.928 52.464 202.589 51.7547 203.859 50.336C205.128 48.88 205.763 47.088 205.763 44.96C205.763 42.832 205.128 41.04 203.859 39.584C202.589 38.128 200.928 37.4 198.875 37.4C197.568 37.4 196.392 37.7547 195.347 38.464C194.339 39.136 193.536 40.0507 192.939 41.208C192.341 42.328 192.043 43.5787 192.043 44.96ZM231.449 57.504C229.657 57.504 227.94 57.1867 226.297 56.552C224.692 55.9173 223.329 54.984 222.209 53.752L224.897 50.224C225.942 51.232 226.969 51.9787 227.977 52.464C229.022 52.912 230.012 53.136 230.945 53.136C231.99 53.136 232.886 52.9493 233.633 52.576C234.417 52.1653 234.809 51.4933 234.809 50.56C234.809 49.8133 234.548 49.2347 234.025 48.824C233.502 48.376 232.83 48.0213 232.009 47.76C231.188 47.4613 230.329 47.1813 229.433 46.92C227.38 46.2853 225.849 45.352 224.841 44.12C223.833 42.888 223.329 41.4693 223.329 39.864C223.329 38.632 223.646 37.456 224.281 36.336C224.916 35.1787 225.868 34.2267 227.137 33.48C228.444 32.7333 230.105 32.36 232.121 32.36C233.876 32.36 235.425 32.5653 236.769 32.976C238.113 33.3867 239.364 34.04 240.521 34.936L238.113 38.688C237.441 38.0533 236.638 37.568 235.705 37.232C234.809 36.8587 233.988 36.6533 233.241 36.616C232.233 36.5787 231.393 36.784 230.721 37.232C230.049 37.68 229.713 38.2773 229.713 39.024C229.676 39.7707 229.918 40.368 230.441 40.816C231.001 41.264 231.71 41.6187 232.569 41.88C233.428 42.1413 234.286 42.4213 235.145 42.72C236.862 43.28 238.281 44.0827 239.401 45.128C240.521 46.136 241.081 47.5547 241.081 49.384C241.081 50.84 240.726 52.184 240.017 53.416C239.308 54.648 238.244 55.6373 236.825 56.384C235.406 57.1307 233.614 57.504 231.449 57.504Z" fill="white"/>
</svg>
