<svg width="227" height="74" viewBox="0 0 227 74" fill="none" xmlns="http://www.w3.org/2000/svg">
<path d="M28.7201 4.52075e-07C31.8388 4.52075e-07 33.7578 3.41049 32.1391 6.07617L21.3029 23.9209C19.7436 26.4888 16.0156 26.4853 14.4611 23.9145L3.67039 6.06979C2.05837 3.40395 3.97791 4.52075e-07 7.09325 4.52075e-07L28.7201 4.52075e-07Z" fill="black"/>
<path d="M48.9286 68.3504C47.3824 70.9235 43.6582 70.9399 42.0895 68.3804L26.7225 43.3074C25.9359 42.024 25.9365 40.4077 26.7238 39.1248L49.5658 1.90765C50.2933 0.722362 51.5842 4.52075e-07 52.975 4.52075e-07L82.9298 4.52075e-07C86.0402 4.52075e-07 87.9604 3.39419 86.3584 6.06024L48.9286 68.3504Z" fill="black"/>
<path d="M98.38 55.6C95.58 55.6 93.14 55.04 91.06 53.92C89.02 52.76 87.44 51.18 86.32 49.18C85.24 47.18 84.7 44.92 84.7 42.4C84.7 39.96 85.3 37.74 86.5 35.74C87.74 33.7 89.4 32.1 91.48 30.94C93.6 29.74 95.94 29.14 98.5 29.14C101.78 29.14 104.5 30.1 106.66 32.02C108.82 33.94 110.3 36.58 111.1 39.94L91.42 46.84C92.1 48.08 93.06 49.06 94.3 49.78C95.54 50.46 96.94 50.8 98.5 50.8C99.62 50.8 100.68 50.6 101.68 50.2C102.68 49.8 103.64 49.28 104.56 48.64L107.14 52.78C105.86 53.62 104.44 54.3 102.88 54.82C101.36 55.34 99.86 55.6 98.38 55.6ZM90.22 42.1C90.18 42.58 90.2 43.04 90.28 43.48L104.74 38.14C104.18 36.94 103.36 35.88 102.28 34.96C101.24 34.04 99.84 33.58 98.08 33.58C95.8 33.58 93.92 34.38 92.44 35.98C90.96 37.58 90.22 39.62 90.22 42.1ZM123.012 30.16L123.432 35.98C124.112 34.58 125.052 33.38 126.252 32.38C127.452 31.34 128.692 30.56 129.972 30.04C131.292 29.48 132.432 29.18 133.392 29.14L133.152 34.72C131.272 34.64 129.612 35.02 128.172 35.86C126.732 36.66 125.612 37.76 124.812 39.16C124.012 40.56 123.612 42.06 123.612 43.66V55H118.032V30.16H123.012ZM145.63 30.16L145.99 34.96C146.83 33.2 148.13 31.8 149.89 30.76C151.65 29.72 153.69 29.2 156.01 29.2C158.33 29.2 160.23 29.9 161.71 31.3C163.23 32.66 164.03 34.44 164.11 36.64V55H158.47V38.56C158.39 37.24 157.97 36.16 157.21 35.32C156.49 34.48 155.35 34.04 153.79 34C151.63 34 149.81 34.88 148.33 36.64C146.89 38.36 146.17 40.6 146.17 43.36V55H140.59V30.16H145.63ZM171.595 42.34C171.595 39.86 172.175 37.62 173.335 35.62C174.535 33.62 176.175 32.04 178.255 30.88C180.335 29.72 182.715 29.14 185.395 29.14C188.075 29.14 190.435 29.72 192.475 30.88C194.515 32.04 196.095 33.62 197.215 35.62C198.375 37.62 198.955 39.86 198.955 42.34C198.955 44.82 198.375 47.06 197.215 49.06C196.095 51.06 194.495 52.66 192.415 53.86C190.375 55.02 187.995 55.6 185.275 55.6C182.635 55.6 180.275 55.06 178.195 53.98C176.155 52.9 174.535 51.36 173.335 49.36C172.175 47.36 171.595 45.02 171.595 42.34ZM177.235 42.4C177.235 44 177.575 45.46 178.255 46.78C178.975 48.06 179.935 49.08 181.135 49.84C182.335 50.6 183.695 50.98 185.215 50.98C186.775 50.98 188.155 50.6 189.355 49.84C190.555 49.08 191.495 48.06 192.175 46.78C192.895 45.46 193.255 44 193.255 42.4C193.255 40.8 192.895 39.36 192.175 38.08C191.495 36.76 190.555 35.72 189.355 34.96C188.155 34.16 186.775 33.76 185.215 33.76C183.695 33.76 182.315 34.16 181.075 34.96C179.875 35.76 178.935 36.82 178.255 38.14C177.575 39.42 177.235 40.84 177.235 42.4ZM213.47 55.48C211.67 55.48 209.93 55.18 208.25 54.58C206.61 53.94 205.25 53 204.17 51.76L206.57 48.52C207.57 49.52 208.63 50.28 209.75 50.8C210.87 51.28 211.95 51.52 212.99 51.52C214.19 51.52 215.23 51.28 216.11 50.8C217.03 50.32 217.49 49.5 217.49 48.34C217.49 47.46 217.19 46.76 216.59 46.24C216.03 45.72 215.29 45.32 214.37 45.04C213.49 44.72 212.57 44.4 211.61 44.08C207.37 42.72 205.25 40.3 205.25 36.82C205.25 35.54 205.57 34.32 206.21 33.16C206.89 32 207.87 31.06 209.15 30.34C210.47 29.62 212.09 29.26 214.01 29.26C215.73 29.26 217.27 29.48 218.63 29.92C219.99 30.36 221.27 31.06 222.47 32.02L220.25 35.44C219.53 34.72 218.67 34.18 217.67 33.82C216.71 33.42 215.83 33.2 215.03 33.16C213.95 33.16 212.99 33.42 212.15 33.94C211.35 34.46 210.95 35.18 210.95 36.1C210.91 36.94 211.17 37.62 211.73 38.14C212.29 38.62 213.01 39.02 213.89 39.34C214.81 39.66 215.73 39.96 216.65 40.24C218.45 40.84 219.97 41.66 221.21 42.7C222.49 43.74 223.13 45.26 223.13 47.26C223.13 49.5 222.33 51.44 220.73 53.08C219.13 54.68 216.71 55.48 213.47 55.48Z" fill="black"/>
</svg>
