<svg width="228" height="74" viewBox="0 0 228 74" fill="none" xmlns="http://www.w3.org/2000/svg">
<path d="M28.7201 4.52075e-07C31.8388 4.52075e-07 33.7578 3.41049 32.1391 6.07617L21.3029 23.9209C19.7436 26.4888 16.0156 26.4853 14.4611 23.9145L3.67039 6.06979C2.05837 3.40395 3.97791 4.52075e-07 7.09325 4.52075e-07L28.7201 4.52075e-07Z" fill="black"/>
<path d="M48.9286 68.3504C47.3824 70.9235 43.6582 70.9399 42.0895 68.3804L26.7225 43.3074C25.9359 42.024 25.9365 40.4077 26.7238 39.1248L49.5658 1.90765C50.2933 0.722362 51.5842 4.52075e-07 52.975 4.52075e-07L82.9298 4.52075e-07C86.0402 4.52075e-07 87.9604 3.39419 86.3584 6.06024L48.9286 68.3504Z" fill="black"/>
<path d="M99.38 53.6C96.58 53.6 94.14 53.04 92.06 51.92C90.02 50.76 88.44 49.18 87.32 47.18C86.24 45.18 85.7 42.92 85.7 40.4C85.7 37.96 86.3 35.74 87.5 33.74C88.74 31.7 90.4 30.1 92.48 28.94C94.6 27.74 96.94 27.14 99.5 27.14C102.78 27.14 105.5 28.1 107.66 30.02C109.82 31.94 111.3 34.58 112.1 37.94L92.42 44.84C93.1 46.08 94.06 47.06 95.3 47.78C96.54 48.46 97.94 48.8 99.5 48.8C100.62 48.8 101.68 48.6 102.68 48.2C103.68 47.8 104.64 47.28 105.56 46.64L108.14 50.78C106.86 51.62 105.44 52.3 103.88 52.82C102.36 53.34 100.86 53.6 99.38 53.6ZM91.22 40.1C91.18 40.58 91.2 41.04 91.28 41.48L105.74 36.14C105.18 34.94 104.36 33.88 103.28 32.96C102.24 32.04 100.84 31.58 99.08 31.58C96.8 31.58 94.92 32.38 93.44 33.98C91.96 35.58 91.22 37.62 91.22 40.1ZM124.012 28.16L124.432 33.98C125.112 32.58 126.052 31.38 127.252 30.38C128.452 29.34 129.692 28.56 130.972 28.04C132.292 27.48 133.432 27.18 134.392 27.14L134.152 32.72C132.272 32.64 130.612 33.02 129.172 33.86C127.732 34.66 126.612 35.76 125.812 37.16C125.012 38.56 124.612 40.06 124.612 41.66V53H119.032V28.16H124.012ZM146.63 28.16L146.99 32.96C147.83 31.2 149.13 29.8 150.89 28.76C152.65 27.72 154.69 27.2 157.01 27.2C159.33 27.2 161.23 27.9 162.71 29.3C164.23 30.66 165.03 32.44 165.11 34.64V53H159.47V36.56C159.39 35.24 158.97 34.16 158.21 33.32C157.49 32.48 156.35 32.04 154.79 32C152.63 32 150.81 32.88 149.33 34.64C147.89 36.36 147.17 38.6 147.17 41.36V53H141.59V28.16H146.63ZM172.595 40.34C172.595 37.86 173.175 35.62 174.335 33.62C175.535 31.62 177.175 30.04 179.255 28.88C181.335 27.72 183.715 27.14 186.395 27.14C189.075 27.14 191.435 27.72 193.475 28.88C195.515 30.04 197.095 31.62 198.215 33.62C199.375 35.62 199.955 37.86 199.955 40.34C199.955 42.82 199.375 45.06 198.215 47.06C197.095 49.06 195.495 50.66 193.415 51.86C191.375 53.02 188.995 53.6 186.275 53.6C183.635 53.6 181.275 53.06 179.195 51.98C177.155 50.9 175.535 49.36 174.335 47.36C173.175 45.36 172.595 43.02 172.595 40.34ZM178.235 40.4C178.235 42 178.575 43.46 179.255 44.78C179.975 46.06 180.935 47.08 182.135 47.84C183.335 48.6 184.695 48.98 186.215 48.98C187.775 48.98 189.155 48.6 190.355 47.84C191.555 47.08 192.495 46.06 193.175 44.78C193.895 43.46 194.255 42 194.255 40.4C194.255 38.8 193.895 37.36 193.175 36.08C192.495 34.76 191.555 33.72 190.355 32.96C189.155 32.16 187.775 31.76 186.215 31.76C184.695 31.76 183.315 32.16 182.075 32.96C180.875 33.76 179.935 34.82 179.255 36.14C178.575 37.42 178.235 38.84 178.235 40.4ZM214.47 53.48C212.67 53.48 210.93 53.18 209.25 52.58C207.61 51.94 206.25 51 205.17 49.76L207.57 46.52C208.57 47.52 209.63 48.28 210.75 48.8C211.87 49.28 212.95 49.52 213.99 49.52C215.19 49.52 216.23 49.28 217.11 48.8C218.03 48.32 218.49 47.5 218.49 46.34C218.49 45.46 218.19 44.76 217.59 44.24C217.03 43.72 216.29 43.32 215.37 43.04C214.49 42.72 213.57 42.4 212.61 42.08C208.37 40.72 206.25 38.3 206.25 34.82C206.25 33.54 206.57 32.32 207.21 31.16C207.89 30 208.87 29.06 210.15 28.34C211.47 27.62 213.09 27.26 215.01 27.26C216.73 27.26 218.27 27.48 219.63 27.92C220.99 28.36 222.27 29.06 223.47 30.02L221.25 33.44C220.53 32.72 219.67 32.18 218.67 31.82C217.71 31.42 216.83 31.2 216.03 31.16C214.95 31.16 213.99 31.42 213.15 31.94C212.35 32.46 211.95 33.18 211.95 34.1C211.91 34.94 212.17 35.62 212.73 36.14C213.29 36.62 214.01 37.02 214.89 37.34C215.81 37.66 216.73 37.96 217.65 38.24C219.45 38.84 220.97 39.66 222.21 40.7C223.49 41.74 224.13 43.26 224.13 45.26C224.13 47.5 223.33 49.44 221.73 51.08C220.13 52.68 217.71 53.48 214.47 53.48Z" fill="black"/>
</svg>
